<svg xmlns="http://www.w3.org/2000/svg" width="54.049" height="54.057" viewBox="0 0 54.049 54.057"><g transform="translate(0 0)"><path d="M53.031,25.99h0a1.056,1.056,0,0,0-1.056,1.055,24.913,24.913,0,0,1-42.53,17.6A24.918,24.918,0,0,1,38.075,4.678a1.056,1.056,0,1,0,.933-1.894A27.032,27.032,0,1,0,54.086,27.047,1.056,1.056,0,0,0,53.031,25.99Z" transform="translate(-0.037 0)" fill="#adadad"/></g><g transform="translate(40.652 5.457)"><path d="M389.467,45.059l-.032-.022a1.217,1.217,0,1,0-1.4,1.995l.028.02a1.218,1.218,0,1,0,1.4-1.993Z" transform="translate(-387.519 -44.816)" fill="#adadad"/></g><g transform="translate(45.505 25.802)"><path d="M443.013,245.966a1.218,1.218,0,0,0-1.218,1.218v.075a1.217,1.217,0,0,0,1.212,1.223h.006a1.218,1.218,0,0,0,1.217-1.212v-.085A1.218,1.218,0,0,0,443.013,245.966Z" transform="translate(-441.795 -245.966)" fill="#adadad"/></g><g transform="translate(6.066 6.583)"><path d="M90.412,77.669a1.014,1.014,0,0,0-1.2.784,18.868,18.868,0,1,1-28.1-20.131,1.014,1.014,0,0,0,1.912.6l1.124-2.274a1.014,1.014,0,0,0-.46-1.359l-2.274-1.124a1.014,1.014,0,0,0-.9,1.819l.321.159A20.9,20.9,0,1,0,91.2,78.87,1.014,1.014,0,0,0,90.412,77.669Z" transform="translate(-49.855 -54.064)" fill="#adadad"/></g><g transform="translate(13.105 21.662)"><path d="M147.992,224.042a3.9,3.9,0,0,0-3.7,2.679H134.234a1.218,1.218,0,1,0,0,2.435h10.058a3.913,3.913,0,0,0,2.483,2.483v13.293a1.218,1.218,0,1,0,2.435,0V231.638a3.9,3.9,0,0,0-1.217-7.6Zm0,5.357a1.461,1.461,0,1,1,1.461-1.461A1.463,1.463,0,0,1,147.992,229.4Z" transform="translate(-133.016 -224.042)" fill="#adadad"/></g><g transform="translate(30.765 10.063)"><g transform="translate(0 0)"><path d="M251.3,107.885h-1.9c1.354-1.359,2.873-3.324,2.873-5.3a3.052,3.052,0,0,0-3.224-3.224,3.227,3.227,0,0,0-3.224,3.224.974.974,0,1,0,1.948,0,1.277,1.277,0,0,1,1.275-1.275,1.127,1.127,0,0,1,1.275,1.275c0,2.023-2.962,4.65-4.1,5.491a.974.974,0,0,0,.577,1.759h4.5a.974.974,0,1,0,0-1.948Z" transform="translate(-245.826 -99.359)" fill="#d9aa7d"/></g></g><g transform="translate(38.177 10.062)"><g transform="translate(0 0)"><path d="M344.006,103.624h-.151v-3.292a.974.974,0,1,0-1.948,0v3.292h-2.626v-3.292a.974.974,0,0,0-1.948,0V104.6a.974.974,0,0,0,.974.974h3.6v3.3a.974.974,0,1,0,1.948,0v-3.3h.151a.974.974,0,1,0,0-1.948Z" transform="translate(-337.332 -99.357)" fill="#d9aa7d"/></g></g><g transform="translate(47.162 10.063)"><g transform="translate(0 0)"><path d="M447.74,103.648a3.073,3.073,0,0,0-1.143.22v-3.537a.974.974,0,1,0-1.948,0v8.526a.974.974,0,1,0,1.948,0V106.74a1.143,1.143,0,0,1,2.286,0v2.117a.974.974,0,1,0,1.948,0V106.74A3.1,3.1,0,0,0,447.74,103.648Z" transform="translate(-444.649 -99.357)" fill="#d9aa7d"/></g></g></svg>