<svg xmlns="http://www.w3.org/2000/svg" width="54" height="54" viewBox="0 0 54 54"><g transform="translate(0 0)"><path d="M493.246,219.441a1.246,1.246,0,1,0,.881.365A1.256,1.256,0,0,0,493.246,219.441Zm0,0" transform="translate(-440.492 -196.52)" fill="#adadad"/><path d="M37.315,458.926a1.24,1.24,0,0,1-.952-.443l0,0a1.244,1.244,0,1,1,.954.446Zm0,0" transform="translate(-31.575 -409.417)" fill="#adadad"/><circle cx="11.5" cy="11.5" r="11.5" transform="translate(2.377 26.557)" fill="#fff9e5"/><path d="M53.454,12.179,32.423.631a1.055,1.055,0,0,0-1.015,0L23.481,4.983a1.058,1.058,0,0,0-.453.249L10.377,12.179a1.054,1.054,0,0,0-.547.925V27.071a14.051,14.051,0,0,0-8.4,19.556,1.055,1.055,0,0,0,1.9-.926A11.924,11.924,0,1,1,8.8,51.182a1.055,1.055,0,0,0-.926,1.9,14.06,14.06,0,0,0,18.988-6.9l4.545,2.5a1.054,1.054,0,0,0,1.015,0L53.454,37.125A1.055,1.055,0,0,0,54,36.2V28.87a1.055,1.055,0,0,0-2.109,0v6.706L32.974,45.964V25.274l6.244-3.429v5.435a1.055,1.055,0,0,0,1.563.924l4.507-2.481a1.054,1.054,0,0,0,.546-.924V18.213l6.059-3.327v5.547a1.055,1.055,0,1,0,2.109,0V13.1a1.055,1.055,0,0,0-.547-.925ZM31.916,2.758,50.755,13.1l-5.943,3.263L25.973,6.022Zm0,20.69L13.076,13.1,19.237,9.72l18.84,10.345Zm8.352-4.586L21.428,8.517l2.353-1.292L42.621,17.57ZM23.96,30.542a13.942,13.942,0,0,0-9.923-4.11,14.226,14.226,0,0,0-2.1.155v-11.7L30.865,25.278v20.69l-3.285-1.8a14.1,14.1,0,0,0,.491-3.7,13.941,13.941,0,0,0-4.11-9.923Zm19.764-6.365-2.4,1.32V20.687l2.4-1.316Zm0,0" transform="translate(-0.001 -0.501)" fill="#adadad"/><path d="M68.591,327.683a.921.921,0,0,0,.651-1.572l-.638-.638h5.443a2.394,2.394,0,0,1,0,4.789H70.822a.921.921,0,1,0,0,1.842h3.225a4.236,4.236,0,1,0,0-8.472H68.6l.638-.638a.921.921,0,0,0-1.3-1.3l-2.21,2.21a.922.922,0,0,0,0,1.3l2.21,2.21A.918.918,0,0,0,68.591,327.683Zm0,0" transform="translate(-58.155 -286.55)" fill="#d9aa7d"/></g></svg>