<svg xmlns="http://www.w3.org/2000/svg" width="49.088" height="54" viewBox="0 0 49.088 54"><g transform="translate(-125.794 0)"><circle cx="11.5" cy="11.5" r="11.5" transform="translate(138.468 16.557)" fill="#fff9e5"/><g transform="translate(125.794 0)"><g transform="translate(0 0)"><g transform="translate(0 0)"><path d="M71.5,8.9l-.072-.013A65.531,65.531,0,0,1,48.381.156a1.055,1.055,0,0,0-1.105,0,64.773,64.773,0,0,1-22.9,8.7l-.214.038a1.055,1.055,0,0,0-.873,1.039V23.739A30.957,30.957,0,0,0,47.6,53.976a1.058,1.058,0,0,0,.453,0,30.974,30.974,0,0,0,24.317-30.25V9.934A1.055,1.055,0,0,0,71.5,8.9Zm-1.236,14.83a29.044,29.044,0,0,1-22.435,28.14A29.024,29.024,0,0,1,25.394,23.739V10.816A66.852,66.852,0,0,0,47.831,2.29a67.6,67.6,0,0,0,22.433,8.525Z" transform="translate(-23.285 0)" fill="#adadad"/></g><g transform="translate(4.774 5.543)"><path d="M246.819,54.681a1.051,1.051,0,0,0,.52-.138l.011-.006.009-.005a1.055,1.055,0,0,0-1.04-1.835l-.023.013a1.055,1.055,0,0,0,.522,1.972Z" transform="translate(-227.073 -52.561)" fill="#adadad"/><path d="M83.655,73.349a69.57,69.57,0,0,1-14.285,4.985,1.055,1.055,0,0,0-.818,1.028v9.884a25.908,25.908,0,0,0,.229,3.429,1.055,1.055,0,1,0,2.091-.28,23.775,23.775,0,0,1-.21-3.148V80.2a71.679,71.679,0,0,0,13.9-4.943,1.055,1.055,0,1,0-.908-1.9Z" transform="translate(-68.553 -71.065)" fill="#adadad"/><path d="M299.577,121.23a1.055,1.055,0,0,0-1.055,1.055v9.884a24.215,24.215,0,0,1-14.114,21.918,1.055,1.055,0,1,0,.88,1.917,26.362,26.362,0,0,0,11.1-9.613,26.038,26.038,0,0,0,4.245-14.222v-9.884A1.055,1.055,0,0,0,299.577,121.23Z" transform="translate(-261.092 -113.988)" fill="#adadad"/><path d="M246.822,445.362l-.04.011a1.055,1.055,0,1,0,.541,2.039l.04-.011a1.055,1.055,0,0,0-.541-2.039Z" transform="translate(-227.283 -403.902)" fill="#adadad"/></g></g><path d="M112.649,227.744l-.377.345-6.636,6.5-3.561-3.476a1.068,1.068,0,0,0-1.507,1.514l.014.014,4.307,4.206a1.069,1.069,0,0,0,1.493,0l7.759-7.576a1.068,1.068,0,0,0-1.492-1.529Zm-.1.078" transform="translate(-82.276 -205.298)" fill="#d9aa7d"/><g transform="translate(41.653 18.046) rotate(107)" fill="none" stroke-linecap="round" stroke-dasharray="75"><path d="M13.486,0A13.486,13.486,0,1,1,0,13.486,13.486,13.486,0,0,1,13.486,0Z" stroke="none"/><path d="M 13.4857931137085 3.814697265625e-06 C 13.48942947387695 3.814697265625e-06 13.49306583404541 3.814697265625e-06 13.49670219421387 7.62939453125e-06 C 16.43439102172852 0.002332687377929688 19.15240669250488 0.9440765380859375 21.36634063720703 2.540912628173828 C 24.76136589050293 4.989873886108398 26.97158241271973 8.979898452758789 26.97158241271973 13.4857931137085 C 26.97158241271973 17.20978355407715 25.46213340759277 20.58123397827148 23.02168273925781 23.02168273925781 C 20.58123397827148 25.46213340759277 17.20978355407715 26.97158241271973 13.4857931137085 26.97158241271973 C 13.35123443603516 26.97158241271973 13.21713638305664 26.96961212158203 13.08352565765381 26.9656982421875 C 8.742982864379883 26.83854103088379 4.916740417480469 24.65998077392578 2.540912628173828 21.36634063720703 C 0.9421005249023438 19.14966583251953 3.814697265625e-06 16.42766380310059 3.814697265625e-06 13.4857931137085 C 3.814697265625e-06 13.48261070251465 5.7220458984375e-06 13.47886562347412 7.62939453125e-06 13.47568416595459 C 7.62939453125e-06 13.47543811798096 7.62939453125e-06 13.47475814819336 7.62939453125e-06 13.47451210021973 C 9.5367431640625e-06 13.4713306427002 1.52587890625e-05 13.46810913085938 1.9073486328125e-05 13.46492767333984 C 1.9073486328125e-05 13.46443557739258 2.09808349609375e-05 13.46386623382568 2.09808349609375e-05 13.46337413787842 C 2.6702880859375e-05 13.4601936340332 3.24249267578125e-05 13.45719528198242 4.00543212890625e-05 13.45401477813721 C 4.1961669921875e-05 13.45327758789062 4.1961669921875e-05 13.45294761657715 4.38690185546875e-05 13.45221042633057 C 5.14984130859375e-05 13.44948387145996 6.103515625e-05 13.44565486907959 7.05718994140625e-05 13.4429292678833 C 7.2479248046875e-05 13.44243812561035 7.43865966796875e-05 13.44174766540527 7.62939453125e-05 13.44125652313232 C 8.58306884765625e-05 13.43807601928711 9.72747802734375e-05 13.43481922149658 0.000110626220703125 13.43163967132568 C 0.0001125335693359375 13.43114852905273 0.0001125335693359375 13.43108940124512 0.00011444091796875 13.43059825897217 C 0.0001277923583984375 13.42696475982666 0.000141143798828125 13.42414855957031 0.0001583099365234375 13.42051601409912 C 0.0001583099365234375 13.42051601409912 0.00016021728515625 13.4199914932251 0.00016021728515625 13.4199914932251 C 0.0001773834228515625 13.41635894775391 0.0001926422119140625 13.41338443756104 0.000213623046875 13.40975189208984 C 0.000213623046875 13.40950679779053 0.000213623046875 13.4096155166626 0.0002155303955078125 13.40937042236328 C 0.000232696533203125 13.4061918258667 0.000255584716796875 13.40254020690918 0.000274658203125 13.39936256408691 C 0.000278472900390625 13.39887142181396 0.000278472900390625 13.39865398406982 0.00028228759765625 13.39816284179688 C 0.000301361083984375 13.39498519897461 0.000324249267578125 13.39162445068359 0.000347137451171875 13.38844776153564 C 0.0003509521484375 13.3879566192627 0.0003528594970703125 13.3875732421875 0.0003566741943359375 13.38708209991455 C 0.0003795623779296875 13.3839054107666 0.00040435791015625 13.38076877593994 0.0004291534423828125 13.37759208679199 C 0.0004329681396484375 13.37710094451904 0.0004367828369140625 13.37645053863525 0.0004405975341796875 13.3759593963623 C 0.0004673004150390625 13.37278366088867 0.000492095947265625 13.36966228485107 0.0005207061767578125 13.36648654937744 C 0.0005245208740234375 13.36599540710449 0.0005283355712890625 13.36554908752441 0.0005321502685546875 13.36505889892578 C 0.000560760498046875 13.36188316345215 0.000591278076171875 13.3585262298584 0.000621795654296875 13.35535144805908 C 0.0006237030029296875 13.35510635375977 0.000629425048828125 13.35457611083984 0.0006313323974609375 13.35433101654053 C 0.0006618499755859375 13.35115623474121 0.0006999969482421875 13.34730815887451 0.000732421875 13.3441333770752 C 0.000732421875 13.3441333770752 0.000732421875 13.34413051605225 0.000732421875 13.34413051605225 C 0.0007686614990234375 13.34050178527832 0.00080108642578125 13.33743095397949 0.000843048095703125 13.3338041305542 C 0.0008449554443359375 13.33355903625488 0.0008487701416015625 13.33326244354248 0.000850677490234375 13.33301734924316 C 0.0008869171142578125 13.32984352111816 0.0009250640869140625 13.32638645172119 0.0009632110595703125 13.32321357727051 C 0.00096893310546875 13.32272338867188 0.000972747802734375 13.32234287261963 0.0009784698486328125 13.32185173034668 C 0.001016616821289062 13.318678855896 0.001054763793945312 13.315673828125 0.001094818115234375 13.31250095367432 C 0.001102447509765625 13.31176567077637 0.001108169555664062 13.31140422821045 0.001117706298828125 13.3106689453125 C 0.00115203857421875 13.30794906616211 0.001203536987304688 13.30402660369873 0.001239776611328125 13.30130767822266 C 0.001245498657226562 13.30081748962402 0.001253128051757812 13.30032348632812 0.00125885009765625 13.29983329772949 C 0.001302719116210938 13.29666137695312 0.001346588134765625 13.29342842102051 0.001392364501953125 13.29025745391846 C 0.001399993896484375 13.28976631164551 0.00140380859375 13.2894115447998 0.00141143798828125 13.28892135620117 C 0.00145721435546875 13.2857494354248 0.001508712768554688 13.28220748901367 0.001556396484375 13.27903652191162 C 0.001560211181640625 13.2787914276123 0.001560211181640625 13.27871036529541 0.00156402587890625 13.27846527099609 C 0.001619338989257812 13.27484130859375 0.001665115356445312 13.27186298370361 0.001722335815429688 13.26823997497559 C 0.001726150512695312 13.26799488067627 0.0017242431640625 13.26816082000732 0.001728057861328125 13.26791572570801 C 0.0017852783203125 13.26429271697998 0.001832962036132812 13.26133251190186 0.001893997192382812 13.25770950317383 C 0.001897811889648438 13.25746536254883 0.001903533935546875 13.25709247589111 0.0019073486328125 13.2568473815918 C 0.00196075439453125 13.25367736816406 0.002019882202148438 13.25017833709717 0.0020751953125 13.24701023101807 C 0.00208282470703125 13.24652004241943 0.002088546752929688 13.2462215423584 0.00209808349609375 13.24573135375977 C 0.0021514892578125 13.24256229400635 0.002208709716796875 13.23937606811523 0.00226593017578125 13.23620796203613 C 0.002275466918945312 13.23571872711182 0.002286911010742188 13.23508453369141 0.00229644775390625 13.23459529876709 C 0.002346038818359375 13.23187923431396 0.00241851806640625 13.22796249389648 0.002470016479492188 13.22524738311768 C 0.00247955322265625 13.22475719451904 0.002492904663085938 13.22402954101562 0.00250244140625 13.22354030609131 C 0.0025634765625 13.22037220001221 0.002622604370117188 13.21724605560303 0.002685546875 13.21407890319824 C 0.002695083618164062 13.21358966827393 0.002698898315429688 13.21340370178223 0.00270843505859375 13.21291446685791 C 0.002773284912109375 13.20974731445312 0.002847671508789062 13.20603275299072 0.002912521362304688 13.20286655426025 C 0.002916336059570312 13.20262241363525 0.002910614013671875 13.20293140411377 0.002916336059570312 13.20268726348877 C 0.00299072265625 13.19906806945801 0.003055572509765625 13.19595241546631 0.003133773803710938 13.19233417510986 C 0.003133773803710938 13.19233417510986 0.003143310546875 13.19181823730469 0.003143310546875 13.19181823730469 C 0.00321197509765625 13.18865203857422 0.00328826904296875 13.18518829345703 0.00335693359375 13.18202304840088 C 0.003368377685546875 13.18153381347656 0.003377914428710938 13.18108940124512 0.003389358520507812 13.1806001663208 C 0.003458023071289062 13.17743492126465 0.003530502319335938 13.17426109313965 0.003602981567382812 13.17109680175781 C 0.003614425659179688 13.1706075668335 0.003625869750976562 13.17009830474854 0.003637313842773438 13.16960906982422 C 0.003709793090820312 13.16644382476807 0.003782272338867188 13.16334438323975 0.003856658935546875 13.16018104553223 C 0.00386810302734375 13.15969181060791 0.00388336181640625 13.15906429290771 0.003894805908203125 13.1585750579834 C 0.003971099853515625 13.15541076660156 0.004045486450195312 13.15231800079346 0.004123687744140625 13.14915466308594 C 0.0041351318359375 13.14866542816162 0.004148483276367188 13.14813899993896 0.004159927368164062 13.14764976501465 C 0.004238128662109375 13.14448642730713 0.0043182373046875 13.14126682281494 0.004398345947265625 13.13810443878174 C 0.004404067993164062 13.13786029815674 0.004423141479492188 13.13713073730469 0.004428863525390625 13.13688564300537 C 0.004602432250976562 13.13010883331299 0.004774093627929688 13.1234769821167 0.004957199096679688 13.11670207977295 C 0.004962921142578125 13.11645793914795 0.004976272583007812 13.11597633361816 0.00498199462890625 13.11573219299316 C 0.005079269409179688 13.11211967468262 0.005151748657226562 13.10947704315186 0.005252838134765625 13.10586452484131 C 0.005258560180664062 13.10562038421631 0.005275726318359375 13.10498905181885 0.005283355712890625 13.10474395751953 C 0.00537109375 13.10158348083496 0.005460739135742188 13.09841918945312 0.005550384521484375 13.09525871276855 C 0.005571365356445312 13.09452629089355 0.005578994750976562 13.09423732757568 0.0055999755859375 13.09350395202637 C 0.005689620971679688 13.09034442901611 0.005777359008789062 13.08733081817627 0.005868911743164062 13.08417129516602 C 0.005884170532226562 13.08368301391602 0.00589752197265625 13.08318519592285 0.00591278076171875 13.08269691467285 C 0.006006240844726562 13.0795373916626 0.006101608276367188 13.07631874084473 0.006195068359375 13.07316017150879 C 0.0062103271484375 13.07267189025879 0.006219863891601562 13.07235240936279 0.006235122680664062 13.07186412811279 C 0.006330490112304688 13.06870460510254 0.006439208984375 13.06511974334717 0.006536483764648438 13.06196212768555 C 0.006536483764648438 13.06196212768555 0.006547927856445312 13.06158447265625 0.006547927856445312 13.06158447265625 C 0.00666046142578125 13.05797481536865 0.006746292114257812 13.05523300170898 0.006860733032226562 13.0516242980957 C 0.006868362426757812 13.0513801574707 0.006877899169921875 13.05106735229492 0.006885528564453125 13.05082321166992 C 0.006984710693359375 13.0476655960083 0.0070953369140625 13.04424953460693 0.007196426391601562 13.04109191894531 C 0.007213592529296875 13.04060363769531 0.00722503662109375 13.04025077819824 0.00724029541015625 13.03976249694824 C 0.007343292236328125 13.03660583496094 0.0074462890625 13.03346729278564 0.007551193237304688 13.03031063079834 C 0.007566452026367188 13.02982234954834 0.007587432861328125 13.02919292449951 0.007604598999023438 13.02870464324951 C 0.007694244384765625 13.02599906921387 0.007829666137695312 13.02197647094727 0.007921218872070312 13.01927089691162 C 0.007938385009765625 13.01878356933594 0.007953643798828125 13.01834678649902 0.007968902587890625 13.01785945892334 C 0.008062362670898438 13.0151538848877 0.008197784423828125 13.01119422912598 0.00829315185546875 13.00848960876465 C 0.008310317993164062 13.00800132751465 0.00833892822265625 13.00715065002441 0.008356094360351562 13.00666332244873 C 0.008466720581054688 13.00350761413574 0.008573532104492188 13.00048542022705 0.008684158325195312 12.99733066558838 C 0.008703231811523438 12.9968433380127 0.008710861206054688 12.99661731719971 0.00872802734375 12.99612998962402 C 0.008840560913085938 12.99297523498535 0.008966445922851562 12.98946380615234 0.009080886840820312 12.98630905151367 C 0.009090423583984375 12.98606586456299 0.009098052978515625 12.9858570098877 0.009107589721679688 12.98561382293701 C 0.00923919677734375 12.982008934021 0.009328842163085938 12.97957229614258 0.009462356567382812 12.97596836090088 C 0.009471893310546875 12.97572422027588 0.009489059448242188 12.97526168823242 0.009496688842773438 12.97501850128174 C 0.009614944458007812 12.97186470031738 0.009735107421875 12.9686803817749 0.009855270385742188 12.96552753448486 C 0.009881973266601562 12.9647970199585 0.009891510009765625 12.96456146240234 0.009918212890625 12.96383094787598 C 0.01003837585449219 12.96067810058594 0.01015090942382812 12.95775985717773 0.01027297973632812 12.95460796356201 C 0.01030158996582031 12.95387649536133 0.01031112670898438 12.95363235473633 0.01033973693847656 12.95290088653564 C 0.01044464111328125 12.95019912719727 0.01059532165527344 12.94632720947266 0.01070213317871094 12.94362640380859 C 0.01073265075683594 12.94289493560791 0.01074028015136719 12.94268703460693 0.01076889038085938 12.94195652008057 C 0.010894775390625 12.93880558013916 0.011016845703125 12.93570613861084 0.01114463806152344 12.93255519866943 C 0.01116371154785156 12.93206882476807 0.01117897033691406 12.93172359466553 0.01119804382324219 12.93123722076416 C 0.01132583618164062 12.92808628082275 0.01146697998046875 12.92459678649902 0.0115966796875 12.92144584655762 C 0.01160812377929688 12.92120265960693 0.01161384582519531 12.92105865478516 0.01162338256835938 12.92081546783447 C 0.01177215576171875 12.91721534729004 0.01189804077148438 12.91418170928955 0.01204872131347656 12.91058254241943 C 0.01204872131347656 12.91058254241943 0.01205635070800781 12.91043090820312 0.01205635070800781 12.91043090820312 C 0.01218795776367188 12.90728187561035 0.01234626770019531 12.90353488922119 0.012481689453125 12.90038585662842 C 0.01249122619628906 12.90014266967773 0.01251602172851562 12.89956474304199 0.01252555847167969 12.89932060241699 C 0.01266098022460938 12.89617252349854 0.0128021240234375 12.89292335510254 0.01293754577636719 12.88977527618408 C 0.01296043395996094 12.8892879486084 0.01298332214355469 12.88872909545898 0.01300430297851562 12.88824272155762 C 0.01314163208007812 12.88509464263916 0.01326942443847656 12.88220596313477 0.01340866088867188 12.87905883789062 C 0.01342964172363281 12.87857151031494 0.01346969604492188 12.87767791748047 0.01349067687988281 12.8771915435791 C 0.01363182067871094 12.87404346466064 0.013763427734375 12.87106895446777 0.01390647888183594 12.86792182922363 C 0.01392745971679688 12.86743545532227 0.01395225524902344 12.86691856384277 0.01397323608398438 12.86643218994141 C 0.01411628723144531 12.86328601837158 0.01426124572753906 12.86009979248047 0.014404296875 12.85695362091064 C 0.01442718505859375 12.85646724700928 0.01444244384765625 12.85616397857666 0.01446342468261719 12.85567760467529 C 0.01460838317871094 12.85253047943115 0.01477241516113281 12.84898567199707 0.01491928100585938 12.84583950042725 C 0.01493072509765625 12.84559631347656 0.01493072509765625 12.84561157226562 0.01494216918945312 12.84536838531494 C 0.01508903503417969 12.84222316741943 0.01525115966796875 12.83879375457764 0.01539993286132812 12.83564853668213 C 0.01542282104492188 12.83516216278076 0.01542472839355469 12.83512210845947 0.01544761657714844 12.83463668823242 C 0.01559638977050781 12.83149147033691 0.0157623291015625 12.82804775238037 0.0159149169921875 12.82490348815918 C 0.01593780517578125 12.82441711425781 0.01594924926757812 12.82418441772461 0.01597213745117188 12.82369899749756 C 0.01612472534179688 12.82055377960205 0.01627159118652344 12.81752967834473 0.01642608642578125 12.81438541412354 C 0.01646232604980469 12.8136568069458 0.0164794921875 12.81328105926514 0.01651573181152344 12.81255149841309 C 0.01664924621582031 12.80985736846924 0.01683807373046875 12.80602645874023 0.01697158813476562 12.80333232879639 C 0.01699638366699219 12.80284690856934 0.01702690124511719 12.80223369598389 0.01705169677734375 12.80174732208252 C 0.01718521118164062 12.79905319213867 0.0173797607421875 12.79520606994629 0.01751518249511719 12.79251289367676 C 0.01755332946777344 12.79178428649902 0.01756858825683594 12.79146385192871 0.01760673522949219 12.79073524475098 C 0.01776504516601562 12.78759288787842 0.01792716979980469 12.78442573547363 0.01808929443359375 12.78128337860107 C 0.01810073852539062 12.78104114532471 0.01811790466308594 12.7807092666626 0.01813125610351562 12.78046607971191 C 0.01831626892089844 12.77687549591064 0.018463134765625 12.7740535736084 0.01865005493164062 12.77046298980713 C 0.01865005493164062 12.77046298980713 0.01866531372070312 12.77016448974609 0.01866531372070312 12.77016448974609 C 0.01885414123535156 12.76657485961914 0.01900482177734375 12.76368427276611 0.019195556640625 12.76009464263916 C 0.01920890808105469 12.75985240936279 0.01922798156738281 12.75948429107666 0.0192413330078125 12.75924205780029 C 0.01940727233886719 12.75610160827637 0.01958465576171875 12.75278377532959 0.01975440979003906 12.74964332580566 C 0.01978111267089844 12.74915790557861 0.01980781555175781 12.74863910675049 0.01983451843261719 12.74815368652344 C 0.02002716064453125 12.7445650100708 0.02015495300292969 12.74223136901855 0.02035140991210938 12.73864364624023 C 0.02037620544433594 12.7381591796875 0.02039337158203125 12.73786449432373 0.02042007446289062 12.737380027771 C 0.02061653137207031 12.73379135131836 0.020751953125 12.7313232421875 0.0209503173828125 12.7277364730835 C 0.02097702026367188 12.72725105285645 0.02099037170410156 12.72702121734619 0.02101707458496094 12.72653675079346 C 0.02119064331054688 12.72339820861816 0.02137947082519531 12.72000789642334 0.02155685424804688 12.71686935424805 C 0.02158355712890625 12.71638488769531 0.02159500122070312 12.71619606018066 0.0216217041015625 12.71571063995361 C 0.02179908752441406 12.71257305145264 0.02199935913085938 12.70904350280762 0.02217674255371094 12.70590686798096 C 0.02219200134277344 12.70566368103027 0.02220726013183594 12.705397605896 0.02222061157226562 12.70515537261963 C 0.02242469787597656 12.70156955718994 0.0225830078125 12.69882869720459 0.02278900146484375 12.69524383544922 C 0.02280426025390625 12.69500160217285 0.02280044555664062 12.69506454467773 0.02281379699707031 12.69482231140137 C 0.0229949951171875 12.69168567657471 0.0232086181640625 12.68804264068604 0.0233917236328125 12.68490695953369 C 0.02342033386230469 12.68442249298096 0.02342796325683594 12.68426322937012 0.02345657348632812 12.68377876281738 C 0.02364158630371094 12.68064308166504 0.02383232116699219 12.67742156982422 0.024017333984375 12.67428684234619 C 0.02404594421386719 12.67380142211914 0.02408027648925781 12.67323684692383 0.02410888671875 12.67275142669678 C 0.02426910400390625 12.67006492614746 0.02449417114257812 12.66628265380859 0.02465629577636719 12.66359519958496 C 0.02468490600585938 12.66311073303223 0.02474212646484375 12.66216278076172 0.02477073669433594 12.66167831420898 C 0.02496147155761719 12.65854358673096 0.02513504028320312 12.65566062927246 0.02532577514648438 12.65252590179443 C 0.02535629272460938 12.6520414352417 0.02538490295410156 12.65157032012939 0.02541351318359375 12.65108585357666 C 0.02560615539550781 12.64795207977295 0.02580833435058594 12.64463329315186 0.02600288391113281 12.64149951934814 C 0.02601814270019531 12.64125728607178 0.02605056762695312 12.64073371887207 0.02606582641601562 12.6404914855957 C 0.02625846862792969 12.63735866546631 0.02648544311523438 12.63370227813721 0.02668190002441406 12.63056945800781 C 0.02669715881347656 12.63032722473145 0.02669906616210938 12.63030910491943 0.02671432495117188 12.63006687164307 C 0.02691078186035156 12.62693405151367 0.02710914611816406 12.62378978729248 0.02730751037597656 12.62065696716309 C 0.02733802795410156 12.62017345428467 0.02736091613769531 12.61979484558105 0.02739143371582031 12.61931037902832 C 0.02758979797363281 12.61617851257324 0.02777671813964844 12.61326122283936 0.02797698974609375 12.61012935638428 C 0.02802467346191406 12.60940361022949 0.02804946899414062 12.60898780822754 0.02809715270996094 12.60826206207275 C 0.02826881408691406 12.60557842254639 0.02849578857421875 12.6020679473877 0.02866935729980469 12.59938430786133 C 0.028717041015625 12.59865856170654 0.02875900268554688 12.59802532196045 0.02880477905273438 12.59729957580566 C 0.02898025512695312 12.5946159362793 0.02921295166015625 12.59106826782227 0.029388427734375 12.58838558197021 C 0.02943611145019531 12.58765983581543 0.0294647216796875 12.58721351623535 0.02951240539550781 12.58648777008057 C 0.02968978881835938 12.58380508422852 0.02993011474609375 12.58017253875732 0.03010940551757812 12.57748985290527 C 0.03015708923339844 12.57676410675049 0.03018379211425781 12.57635879516602 0.03023147583007812 12.57563304901123 C 0.0304412841796875 12.5725040435791 0.03064155578613281 12.56949901580811 0.030853271484375 12.56637001037598 C 0.03088569641113281 12.56588649749756 0.03089332580566406 12.56575965881348 0.03092575073242188 12.56527614593506 C 0.03113746643066406 12.56214714050293 0.03135490417480469 12.55894088745117 0.03156661987304688 12.55581283569336 C 0.03158378601074219 12.55557060241699 0.03159523010253906 12.55540084838867 0.03161239624023438 12.5551586151123 C 0.03182411193847656 12.55203056335449 0.03206825256347656 12.54847717285156 0.03228378295898438 12.54534912109375 C 0.032318115234375 12.54486560821533 0.03232955932617188 12.5446834564209 0.0323638916015625 12.54419994354248 C 0.03257942199707031 12.54107284545898 0.03278732299804688 12.53805923461914 0.03300666809082031 12.53493309020996 C 0.03303909301757812 12.53444957733154 0.03310012817382812 12.53357601165771 0.03313446044921875 12.5330924987793 C 0.03332138061523438 12.5304126739502 0.03358650207519531 12.52664375305176 0.03377342224121094 12.52396392822266 C 0.03380775451660156 12.52348136901855 0.03385543823242188 12.52282619476318 0.03388786315917969 12.52234363555908 C 0.03407859802246094 12.51966381072998 0.03435325622558594 12.51579189300537 0.03454399108886719 12.51311302185059 C 0.03457832336425781 12.51263046264648 0.0346221923828125 12.51200485229492 0.03465652465820312 12.51152229309082 C 0.03487968444824219 12.50839710235596 0.0351104736328125 12.50516700744629 0.03533744812011719 12.50204277038574 C 0.03537178039550781 12.50155925750732 0.03537178039550781 12.50156116485596 0.03540611267089844 12.50107860565186 C 0.03566360473632812 12.49750709533691 0.03586387634277344 12.49475383758545 0.03612327575683594 12.49118328094482 C 0.03614234924316406 12.49094200134277 0.03615379333496094 12.49077606201172 0.03617095947265625 12.49053478240967 C 0.03643226623535156 12.48696517944336 0.03662681579589844 12.48430061340332 0.03689002990722656 12.48073101043701 C 0.03689002990722656 12.48073101043701 0.03693389892578125 12.48014354705811 0.03693389892578125 12.48014354705811 C 0.03716278076171875 12.47702026367188 0.03742218017578125 12.47352886199951 0.03765487670898438 12.47040557861328 C 0.03769111633300781 12.46992301940918 0.03771209716796875 12.46963596343994 0.03774833679199219 12.46915340423584 C 0.03798103332519531 12.46603012084961 0.03822135925292969 12.46282196044922 0.03845596313476562 12.4596996307373 C 0.03849220275878906 12.4592170715332 0.0385284423828125 12.45873737335205 0.03856468200683594 12.45825481414795 C 0.03879928588867188 12.45513343811035 0.03901863098144531 12.45224666595459 0.03925514221191406 12.44912528991699 C 0.03931045532226562 12.44840145111084 0.0393524169921875 12.44785690307617 0.03940773010253906 12.44713306427002 C 0.03961181640625 12.44445705413818 0.03988838195800781 12.44084453582764 0.04009246826171875 12.43816947937012 C 0.04014778137207031 12.43744564056396 0.04016876220703125 12.43718338012695 0.04022407531738281 12.4364595413208 C 0.04046440124511719 12.43333911895752 0.04069709777832031 12.43034076690674 0.0409393310546875 12.42722129821777 C 0.04095649719238281 12.42698001861572 0.04102516174316406 12.42609691619873 0.04104423522949219 12.42585563659668 C 0.04128646850585938 12.42273616790771 0.04154396057128906 12.41944408416748 0.04178810119628906 12.41632461547852 C 0.04178810119628906 12.41632461547852 0.04181480407714844 12.41599082946777 0.04181480407714844 12.41599082946777 C 0.04206085205078125 12.41287136077881 0.04232978820800781 12.40944957733154 0.04257774353027344 12.40633106231689 C 0.04261589050292969 12.40584945678711 0.0426483154296875 12.40542411804199 0.04268646240234375 12.40494251251221 C 0.04293441772460938 12.40182399749756 0.04317665100097656 12.39878559112549 0.043426513671875 12.39566802978516 C 0.04346466064453125 12.39518547058105 0.04351615905761719 12.39453792572021 0.04355430603027344 12.39405632019043 C 0.04380416870117188 12.39093780517578 0.04403114318847656 12.38811683654785 0.04428291320800781 12.38500022888184 C 0.044342041015625 12.38427734375 0.04438018798828125 12.38381004333496 0.04443740844726562 12.38308715820312 C 0.04465484619140625 12.38041496276855 0.04494857788085938 12.37680339813232 0.045166015625 12.37413215637207 C 0.04522514343261719 12.37340927124023 0.04525566101074219 12.37302303314209 0.04531478881835938 12.37230014801025 C 0.04557037353515625 12.36918449401855 0.04581069946289062 12.36623477935791 0.04606819152832031 12.36311912536621 C 0.04610824584960938 12.36263751983643 0.04614067077636719 12.36223602294922 0.04618072509765625 12.36175441741943 C 0.04643821716308594 12.35863876342773 0.04671478271484375 12.3552942276001 0.04697418212890625 12.3521785736084 C 0.04699516296386719 12.35193824768066 0.04701995849609375 12.35163021087646 0.04704093933105469 12.35138988494873 C 0.04733657836914062 12.34782886505127 0.04754066467285156 12.3454008102417 0.04783821105957031 12.34184169769287 C 0.04785919189453125 12.34160041809082 0.04788017272949219 12.34134197235107 0.04790115356445312 12.34110164642334 C 0.04816246032714844 12.33798694610596 0.04845046997070312 12.3345890045166 0.04871368408203125 12.33147430419922 C 0.04875564575195312 12.33099365234375 0.04878425598144531 12.33063888549805 0.04882621765136719 12.33015727996826 C 0.04908943176269531 12.3270435333252 0.04933929443359375 12.32410717010498 0.0496063232421875 12.32099437713623 C 0.04964828491210938 12.32051277160645 0.04972076416015625 12.31965065002441 0.04976272583007812 12.31916904449463 C 0.04999160766601562 12.31650066375732 0.05030250549316406 12.3128776550293 0.05053329467773438 12.31020927429199 C 0.05059623718261719 12.30948829650879 0.05063629150390625 12.3090124130249 0.05069923400878906 12.3082914352417 C 0.05093002319335938 12.30562305450439 0.05124282836914062 12.30203056335449 0.05147361755371094 12.2993631362915 C 0.05151557922363281 12.29888248443604 0.05159378051757812 12.29798603057861 0.0516357421875 12.29750442504883 C 0.05190849304199219 12.29439353942871 0.05215644836425781 12.29154872894287 0.05243110656738281 12.28843784332275 C 0.05247306823730469 12.28795719146729 0.05252647399902344 12.28736019134521 0.05256843566894531 12.28687953948975 C 0.05284309387207031 12.28376865386963 0.05308723449707031 12.28099060058594 0.05336380004882812 12.27787971496582 C 0.05340766906738281 12.27739906311035 0.05344390869140625 12.27699089050293 0.05348587036132812 12.27651023864746 C 0.05372238159179688 12.27384376525879 0.05405426025390625 12.27012634277344 0.05429267883300781 12.26746082305908 C 0.05431556701660156 12.26722049713135 0.05438423156738281 12.26644420623779 0.05440521240234375 12.26620388031006 C 0.05468368530273438 12.26309490203857 0.05493927001953125 12.26025390625 0.0552215576171875 12.25714492797852 C 0.05528640747070312 12.25642395019531 0.05533599853515625 12.25587940216064 0.05540084838867188 12.25515842437744 C 0.05564117431640625 12.2524938583374 0.05597114562988281 12.24886989593506 0.05621337890625 12.24620532989502 C 0.05627822875976562 12.24548435211182 0.056304931640625 12.24519348144531 0.05637168884277344 12.24447250366211 C 0.05661392211914062 12.24180889129639 0.05694961547851562 12.23815155029297 0.05719375610351562 12.23548793792725 C 0.05726051330566406 12.23476791381836 0.05730438232421875 12.23429489135742 0.05737113952636719 12.23357486724854 C 0.05765724182128906 12.23046684265137 0.05792427062988281 12.22756671905518 0.0582122802734375 12.22445964813232 C 0.05825614929199219 12.22397994995117 0.05829429626464844 12.22357368469238 0.05834007263183594 12.22309398651123 C 0.05862808227539062 12.21998691558838 0.058929443359375 12.21675586700439 0.0592193603515625 12.21364974975586 C 0.05926513671875 12.21316909790039 0.05928230285644531 12.21298503875732 0.059326171875 12.21250534057617 C 0.05961799621582031 12.20939922332764 0.05994606018066406 12.20590114593506 0.06023979187011719 12.20279598236084 C 0.06023979187011719 12.20279598236084 0.06025314331054688 12.20263957977295 0.06025314331054688 12.20263957977295 C 0.060546875 12.19953441619873 0.06088066101074219 12.19602489471436 0.06117439270019531 12.19291973114014 C 0.06122016906738281 12.19244003295898 0.06125640869140625 12.19206619262695 0.06130218505859375 12.19158554077148 C 0.06163978576660156 12.18803787231445 0.06187629699707031 12.18557262420654 0.06221580505371094 12.18202495574951 C 0.06226158142089844 12.18154525756836 0.06227302551269531 12.18143463134766 0.06231880187988281 12.1809549331665 C 0.06261634826660156 12.17785167694092 0.06291961669921875 12.17471408843994 0.06321907043457031 12.17161083221436 C 0.06326484680175781 12.1711311340332 0.06333732604980469 12.17038345336914 0.063385009765625 12.16990375518799 C 0.06364250183105469 12.16724395751953 0.0640106201171875 12.1634578704834 0.06427001953125 12.16079807281494 C 0.0643157958984375 12.16031837463379 0.06438064575195312 12.15966510772705 0.06442642211914062 12.1591854095459 C 0.06472969055175781 12.15608310699463 0.06501960754394531 12.15311813354492 0.06532478332519531 12.15001583099365 C 0.06537246704101562 12.14953708648682 0.06543350219726562 12.14891338348389 0.06548118591308594 12.14843463897705 C 0.06578636169433594 12.14533233642578 0.06610298156738281 12.14211368560791 0.06641197204589844 12.13901233673096 C 0.06643486022949219 12.13877201080322 0.0664520263671875 12.13859844207764 0.06647682189941406 12.1383581161499 C 0.06678390502929688 12.13525772094727 0.06709480285644531 12.13214015960693 0.06740379333496094 12.1290397644043 C 0.06745147705078125 12.12856101989746 0.06747627258300781 12.12832069396973 0.06752395629882812 12.12784194946289 C 0.06783294677734375 12.12474155426025 0.06814002990722656 12.12168407440186 0.06845283508300781 12.11858463287354 C 0.06850051879882812 12.1181058883667 0.06856536865234375 12.11746025085449 0.06861305236816406 12.11698150634766 C 0.06892585754394531 12.11388206481934 0.06919670104980469 12.11121845245361 0.06950950622558594 12.10811901092529 C 0.06958389282226562 12.10740089416504 0.0696563720703125 12.10668468475342 0.06972885131835938 12.10596561431885 C 0.06999969482421875 12.10330963134766 0.07036018371582031 12.09976863861084 0.07063102722167969 12.09711265563965 C 0.07070541381835938 12.09639453887939 0.07073020935058594 12.09614276885986 0.07080459594726562 12.09542465209961 C 0.0711212158203125 12.09232616424561 0.07142066955566406 12.0894079208374 0.07174110412597656 12.08631038665771 C 0.07181549072265625 12.08559226989746 0.07183647155761719 12.08538150787354 0.07191085815429688 12.08466339111328 C 0.07223129272460938 12.08156585693359 0.07254409790039062 12.07853698730469 0.07286643981933594 12.07544040679932 C 0.0728912353515625 12.0752010345459 0.07296562194824219 12.07448959350586 0.07299041748046875 12.07425022125244 C 0.07331275939941406 12.07115364074707 0.073638916015625 12.06801319122314 0.07396316528320312 12.06491661071777 C 0.07398796081542969 12.06467723846436 0.07401657104492188 12.06441688537598 0.07404136657714844 12.06417751312256 C 0.07441139221191406 12.06063938140869 0.07468414306640625 12.05804252624512 0.0750579833984375 12.05450439453125 C 0.07508277893066406 12.05426502227783 0.07513236999511719 12.05380725860596 0.07515716552734375 12.05356788635254 C 0.07548332214355469 12.05047225952148 0.075836181640625 12.04715538024902 0.07616424560546875 12.04406070709229 C 0.07621574401855469 12.04358196258545 0.07625579833984375 12.04319763183594 0.07630729675292969 12.0427188873291 C 0.07663536071777344 12.03962421417236 0.07696533203125 12.03653240203857 0.07729721069335938 12.03343868255615 C 0.07734870910644531 12.03295993804932 0.07740974426269531 12.03238105773926 0.07746124267578125 12.03190231323242 C 0.07774543762207031 12.0292501449585 0.07815742492675781 12.02542686462402 0.07844352722167969 12.02277565002441 C 0.07849502563476562 12.02229690551758 0.07857513427734375 12.02156352996826 0.07862663269042969 12.02108478546143 C 0.07896041870117188 12.01799201965332 0.07929420471191406 12.01490879058838 0.07962989807128906 12.01181602478027 C 0.079681396484375 12.01133728027344 0.0796966552734375 12.01120185852051 0.07974815368652344 12.01072311401367 C 0.08008575439453125 12.00763034820557 0.08047676086425781 12.00405120849609 0.08081436157226562 12.0009593963623 C 0.080841064453125 12.0007209777832 0.08084297180175781 12.00070381164551 0.08086967468261719 12.00046539306641 C 0.08125495910644531 11.99693202972412 0.08159446716308594 11.99385070800781 0.08198356628417969 11.99031734466553 C 0.08198356628417969 11.99031734466553 0.08199882507324219 11.99017810821533 0.08199882507324219 11.99017810821533 C 0.08234024047851562 11.98708629608154 0.08274459838867188 11.98344421386719 0.08308792114257812 11.98035335540771 C 0.08314132690429688 11.9798755645752 0.08316230773925781 11.97967433929443 0.08321571350097656 11.97919654846191 C 0.08355903625488281 11.97610569000244 0.08389854431152344 11.9730749130249 0.0842437744140625 11.96998500823975 C 0.08429718017578125 11.96950721740723 0.08438491821289062 11.96871948242188 0.08443832397460938 11.96824169158936 C 0.08473587036132812 11.9655933380127 0.08515167236328125 11.96188926696777 0.08544921875 11.95924091339111 C 0.08550262451171875 11.95876407623291 0.0855865478515625 11.95801639556885 0.08564186096191406 11.95753955841064 C 0.08598899841308594 11.9544506072998 0.0863189697265625 11.95153903961182 0.086669921875 11.94845008850098 C 0.08672332763671875 11.94797325134277 0.08679580688476562 11.94733905792236 0.08684921264648438 11.94686126708984 C 0.08720016479492188 11.94377326965332 0.08753204345703125 11.94086837768555 0.08788490295410156 11.93778038024902 C 0.08793830871582031 11.93730354309082 0.0880279541015625 11.93653392791748 0.08808135986328125 11.93605709075928 C 0.08843421936035156 11.93296909332275 0.08876228332519531 11.93010711669922 0.08911895751953125 11.92702007293701 C 0.08914566040039062 11.92678165435791 0.08919334411621094 11.92637634277344 0.08922004699707031 11.92613792419434 C 0.08957481384277344 11.92305088043213 0.08991622924804688 11.92011070251465 0.09027290344238281 11.91702365875244 C 0.090301513671875 11.91678524017334 0.09039878845214844 11.91593360900879 0.09042739868164062 11.91569519042969 C 0.09078407287597656 11.9126091003418 0.09114456176757812 11.90952205657959 0.09150314331054688 11.9064359664917 C 0.09156036376953125 11.9059591293335 0.09161949157714844 11.9054479598999 0.0916748046875 11.9049711227417 C 0.09203529357910156 11.90188503265381 0.09236526489257812 11.89906215667725 0.0927276611328125 11.89597702026367 C 0.09281158447265625 11.89526176452637 0.09287071228027344 11.89476585388184 0.09295463562011719 11.89405059814453 C 0.09326553344726562 11.89140701293945 0.09367942810058594 11.88790225982666 0.09399032592773438 11.88525867462158 C 0.09407615661621094 11.88454341888428 0.09413528442382812 11.88404178619385 0.09421920776367188 11.88332653045654 C 0.09458541870117188 11.88024234771729 0.09491920471191406 11.87742614746094 0.09528541564941406 11.874342918396 C 0.09534263610839844 11.87386703491211 0.09540748596191406 11.87333202362061 0.09546279907226562 11.8728551864624 C 0.09583091735839844 11.86977195739746 0.0962066650390625 11.86662578582764 0.09657669067382812 11.8635425567627 C 0.0966339111328125 11.86306667327881 0.09665298461914062 11.8629150390625 0.09670829772949219 11.8624382019043 C 0.09702682495117188 11.85979652404785 0.09747314453125 11.85607528686523 0.09779167175292969 11.85343360900879 C 0.09782218933105469 11.853196144104 0.09790611267089844 11.85249900817871 0.09793472290039062 11.85226154327393 C 0.09830665588378906 11.8491792678833 0.0986785888671875 11.84611129760742 0.09905242919921875 11.84302997589111 C 0.09910964965820312 11.84255409240723 0.0991668701171875 11.84207916259766 0.09922599792480469 11.84160232543945 C 0.09959983825683594 11.83852195739746 0.09996414184570312 11.83553028106689 0.100341796875 11.8324499130249 C 0.1003990173339844 11.83197402954102 0.1004810333251953 11.83129978179932 0.1005401611328125 11.83082294464111 C 0.1008625030517578 11.8281831741333 0.1013336181640625 11.82434940338135 0.1016578674316406 11.82170963287354 C 0.1017169952392578 11.82123374938965 0.1017894744873047 11.82064247131348 0.1018486022949219 11.82016658782959 C 0.1022281646728516 11.81708717346191 0.1025962829589844 11.81410121917725 0.1029777526855469 11.81102180480957 C 0.1030368804931641 11.81054592132568 0.1031093597412109 11.80996036529541 0.1031684875488281 11.80948448181152 C 0.1035499572753906 11.80640506744385 0.1039333343505859 11.80332088470459 0.1043167114257812 11.80024337768555 C 0.1043758392333984 11.79976749420166 0.1044120788574219 11.79948711395264 0.1044712066650391 11.79901123046875 C 0.1048545837402344 11.79593372344971 0.1052742004394531 11.79257678985596 0.1056613922119141 11.78949928283691 C 0.1056919097900391 11.78926086425781 0.1057415008544922 11.7888650894165 0.1057701110839844 11.78862762451172 C 0.1061019897460938 11.78598976135254 0.1065502166748047 11.78242492675781 0.1068840026855469 11.77978801727295 C 0.1069431304931641 11.77931213378906 0.1070060729980469 11.77881813049316 0.1070671081542969 11.77834224700928 C 0.1074542999267578 11.77526569366455 0.1078033447265625 11.77251815795898 0.1081943511962891 11.76944160461426 C 0.1082839965820312 11.76872825622559 0.1083469390869141 11.76823329925537 0.1084384918212891 11.76752090454102 C 0.1087741851806641 11.76488399505615 0.1092014312744141 11.76153182983398 0.1095371246337891 11.75889587402344 C 0.1096286773681641 11.75818347930908 0.1097316741943359 11.75738048553467 0.1098232269287109 11.75666809082031 C 0.1101608276367188 11.75403213500977 0.1105842590332031 11.75072193145752 0.1109237670898438 11.74808692932129 C 0.1110153198242188 11.74737358093262 0.1110935211181641 11.74676990509033 0.1111850738525391 11.74605655670166 C 0.1115245819091797 11.74342155456543 0.1119747161865234 11.73993301391602 0.1123161315917969 11.73729801177979 C 0.1124076843261719 11.73658561706543 0.1124649047851562 11.73615264892578 0.1125564575195312 11.73544025421143 C 0.1129550933837891 11.73236656188965 0.1133174896240234 11.72957038879395 0.1137180328369141 11.72649669647217 C 0.1137809753417969 11.7260217666626 0.1138477325439453 11.72551155090332 0.1139087677001953 11.72503662109375 C 0.1143093109130859 11.72196388244629 0.1146717071533203 11.71918869018555 0.1150760650634766 11.71611595153809 C 0.1151371002197266 11.71564102172852 0.1151561737060547 11.71549510955811 0.1152191162109375 11.71502017974854 C 0.1156215667724609 11.71194744110107 0.1160087585449219 11.70900726318359 0.1164131164550781 11.70593643188477 C 0.1164760589599609 11.7054615020752 0.1165409088134766 11.70497703552246 0.1166019439697266 11.70450210571289 C 0.1170082092285156 11.70143032073975 0.1173954010009766 11.69850635528564 0.1178016662597656 11.69543552398682 C 0.1178646087646484 11.69496059417725 0.1179656982421875 11.69420337677002 0.1180286407470703 11.69372844696045 C 0.118377685546875 11.69109630584717 0.1188545227050781 11.68752002716064 0.1192054748535156 11.68488788604736 C 0.1193008422851562 11.68417644500732 0.1193675994873047 11.683669090271 0.1194629669189453 11.68295669555664 C 0.1198158264160156 11.68032550811768 0.12030029296875 11.67669868469238 0.1206531524658203 11.67406749725342 C 0.1207180023193359 11.67359256744385 0.1208095550537109 11.67291450500488 0.1208724975585938 11.67244052886963 C 0.1212844848632812 11.66937065124512 0.1216773986816406 11.66645431518555 0.1220932006835938 11.66338539123535 C 0.1221561431884766 11.6629114151001 0.1222362518310547 11.66232109069824 0.1223011016845703 11.66184616088867 C 0.1227149963378906 11.65877819061279 0.1231441497802734 11.65561962127686 0.1235599517822266 11.65255165100098 C 0.1235923767089844 11.65231513977051 0.1236343383789062 11.65200805664062 0.1236667633056641 11.65177154541016 C 0.1241436004638672 11.64826488494873 0.1244564056396484 11.64596557617188 0.1249370574951172 11.64245986938477 C 0.125 11.64198589324951 0.1249885559082031 11.64207077026367 0.1250534057617188 11.64159679412842 C 0.1254730224609375 11.63852977752686 0.1259441375732422 11.63510131835938 0.1263656616210938 11.63203525543213 C 0.1264305114746094 11.63156127929688 0.1264495849609375 11.63142108917236 0.1265144348144531 11.63094711303711 C 0.1269359588623047 11.62788105010986 0.1273651123046875 11.62477207183838 0.1277885437011719 11.62170600891113 C 0.1278553009033203 11.6212329864502 0.1279449462890625 11.62057399749756 0.1280117034912109 11.6201000213623 C 0.1283760070800781 11.61747264862061 0.1288928985595703 11.61373805999756 0.1292591094970703 11.61111164093018 C 0.1293239593505859 11.61063766479492 0.1294269561767578 11.60990333557129 0.1294918060302734 11.60942935943604 C 0.1298580169677734 11.60680198669434 0.1303482055664062 11.60329055786133 0.1307163238525391 11.60066413879395 C 0.1308155059814453 11.59995365142822 0.1309108734130859 11.59926700592041 0.1310100555419922 11.59855651855469 C 0.131439208984375 11.59549236297607 0.1318187713623047 11.59278583526611 0.1322498321533203 11.5897216796875 C 0.1323165893554688 11.58924865722656 0.1323661804199219 11.58890819549561 0.1324329376220703 11.58843421936035 C 0.1328639984130859 11.58537101745605 0.13330078125 11.58227157592773 0.1337337493896484 11.57920837402344 C 0.1337680816650391 11.57897186279297 0.1338462829589844 11.57841300964355 0.133880615234375 11.57817649841309 C 0.1343135833740234 11.57511425018311 0.1347179412841797 11.57227039337158 0.1351528167724609 11.56920909881592 C 0.1351871490478516 11.56897258758545 0.1353092193603516 11.56811809539795 0.1353416442871094 11.56788158416748 C 0.1357784271240234 11.56482028961182 0.1361732482910156 11.56204700469971 0.1366119384765625 11.55898666381836 C 0.1367130279541016 11.55827617645264 0.1367969512939453 11.55768775939941 0.1368999481201172 11.55697727203369 C 0.1372756958007812 11.55435371398926 0.1377754211425781 11.55086326599121 0.138153076171875 11.54824066162109 C 0.1382560729980469 11.54753112792969 0.1383094787597656 11.54714870452881 0.1384124755859375 11.5464391708374 C 0.1387901306152344 11.54381656646729 0.1393241882324219 11.54012107849121 0.1397037506103516 11.53749847412109 C 0.1398067474365234 11.53678894042969 0.13983154296875 11.53661346435547 0.1399345397949219 11.53590393066406 C 0.1403770446777344 11.53284454345703 0.1408004760742188 11.52992153167725 0.1412467956542969 11.52686214447021 C 0.1413154602050781 11.52639007568359 0.1413974761962891 11.52582740783691 0.1414661407470703 11.52535533905029 C 0.1419124603271484 11.52229690551758 0.1423549652099609 11.51925373077393 0.1428031921386719 11.51619529724121 C 0.1428718566894531 11.51572322845459 0.1429328918457031 11.51530456542969 0.1430034637451172 11.51483249664307 C 0.1433868408203125 11.51221084594727 0.1439037322998047 11.50868988037109 0.1442890167236328 11.50606918334961 C 0.1443233489990234 11.50583362579346 0.1443939208984375 11.5053539276123 0.1444282531738281 11.50511741638184 C 0.1448783874511719 11.50206089019775 0.1453571319580078 11.49881649017334 0.1458091735839844 11.49575996398926 C 0.1458797454833984 11.49528789520264 0.14593505859375 11.49490833282471 0.1460056304931641 11.49443626403809 C 0.1464576721191406 11.491379737854 0.146881103515625 11.48852443695068 0.1473369598388672 11.4854679107666 C 0.1474056243896484 11.48499584197998 0.1475429534912109 11.48407363891602 0.147613525390625 11.48360061645508 C 0.1480045318603516 11.48098182678223 0.1485061645507812 11.47761535644531 0.1488971710205078 11.47499656677246 C 0.1490039825439453 11.47428798675537 0.1491031646728516 11.47362613677979 0.1492080688476562 11.47291851043701 C 0.1496009826660156 11.47029972076416 0.1501350402832031 11.46672821044922 0.1505298614501953 11.46411037445068 C 0.1506004333496094 11.46363830566406 0.1507034301757812 11.46295642852783 0.1507740020751953 11.46248435974121 C 0.1512336730957031 11.45942974090576 0.1516609191894531 11.45659446716309 0.1521224975585938 11.45354175567627 C 0.1521930694580078 11.45306968688965 0.1522922515869141 11.45241355895996 0.1523647308349609 11.45194244384766 C 0.1528263092041016 11.44888877868652 0.1532878875732422 11.44584465026855 0.1537513732910156 11.44279193878174 C 0.1537876129150391 11.44255638122559 0.1538791656494141 11.4419584274292 0.1539134979248047 11.44172191619873 C 0.1543121337890625 11.43910598754883 0.1548042297363281 11.43587017059326 0.1552047729492188 11.43325424194336 C 0.1553134918212891 11.43254661560059 0.1553573608398438 11.43225002288818 0.1554660797119141 11.43154239654541 C 0.1559314727783203 11.42849063873291 0.1563701629638672 11.42563247680664 0.1568393707275391 11.42258167266846 C 0.1569480895996094 11.42187404632568 0.1569728851318359 11.42171096801758 0.1570816040039062 11.4210033416748 C 0.1575489044189453 11.41795253753662 0.1579780578613281 11.4151668548584 0.1584491729736328 11.41211605072021 C 0.1585578918457031 11.41140937805176 0.1586208343505859 11.41100692749023 0.1587295532226562 11.41029930114746 C 0.1591339111328125 11.40768527984619 0.1597023010253906 11.40401649475098 0.1601066589355469 11.40140247344971 C 0.16021728515625 11.40069484710693 0.1602497100830078 11.40048789978027 0.1603584289550781 11.39978122711182 C 0.1608333587646484 11.39673137664795 0.1612758636474609 11.39387893676758 0.1617527008056641 11.39083003997803 C 0.1618614196777344 11.39012336730957 0.1618938446044922 11.38992595672607 0.1620025634765625 11.38921928405762 C 0.1624794006347656 11.38617038726807 0.1629714965820312 11.38302803039551 0.1634483337402344 11.37998008728027 C 0.1634864807128906 11.37974452972412 0.1635284423828125 11.37947273254395 0.1635646820068359 11.37923717498779 C 0.1641120910644531 11.37575340270996 0.1645565032958984 11.37292289733887 0.1651058197021484 11.36944007873535 C 0.1651058197021484 11.36944007873535 0.1651325225830078 11.36926555633545 0.1651325225830078 11.36926555633545 C 0.1656818389892578 11.36578369140625 0.1661548614501953 11.36279678344727 0.1667060852050781 11.35931587219238 C 0.1667423248291016 11.35908031463623 0.1667728424072266 11.35889053344727 0.1668109893798828 11.35865497589111 C 0.1672935485839844 11.35560894012451 0.1678047180175781 11.35238933563232 0.1682891845703125 11.34934425354004 C 0.1683635711669922 11.34887313842773 0.1684627532958984 11.3482494354248 0.1685390472412109 11.3477783203125 C 0.1690235137939453 11.34473323822021 0.1694984436035156 11.34175682067871 0.1699848175048828 11.33871173858643 C 0.1700611114501953 11.33824062347412 0.1701316833496094 11.33779716491699 0.1702079772949219 11.33732604980469 C 0.1707649230957031 11.33384609222412 0.1711158752441406 11.3316535949707 0.1716747283935547 11.32817459106445 C 0.1717510223388672 11.32770442962646 0.1718311309814453 11.3272066116333 0.1719074249267578 11.32673645019531 C 0.1723976135253906 11.32369232177734 0.1729106903076172 11.32050609588623 0.1734027862548828 11.31746292114258 C 0.1734790802001953 11.31699275970459 0.1734867095947266 11.31694316864014 0.1735630035400391 11.31647300720215 C 0.1741256713867188 11.31299495697021 0.1745529174804688 11.31035804748535 0.1751174926757812 11.30688095092773 C 0.1751556396484375 11.30664539337158 0.1751995086669922 11.30637264251709 0.1752376556396484 11.30613708496094 C 0.1758022308349609 11.30265998840332 0.1762313842773438 11.30002498626709 0.1767997741699219 11.29654884338379 C 0.1768379211425781 11.29631423950195 0.1768302917480469 11.29635715484619 0.1768684387207031 11.29612255096436 C 0.1773662567138672 11.29308032989502 0.1779460906982422 11.28954124450684 0.1784439086914062 11.28649997711182 C 0.1785221099853516 11.28602981567383 0.1785411834716797 11.28590774536133 0.1786174774169922 11.28543758392334 C 0.1791877746582031 11.28196239471436 0.179595947265625 11.27948665618896 0.1801681518554688 11.2760124206543 C 0.1802463531494141 11.27554225921631 0.1802749633789062 11.27537059783936 0.1803512573242188 11.27490043640137 C 0.1808528900146484 11.27186012268066 0.1813755035400391 11.26870727539062 0.1818771362304688 11.26566791534424 C 0.1819553375244141 11.26519775390625 0.1820468902587891 11.26465034484863 0.1821250915527344 11.26418018341064 C 0.1826286315917969 11.26114177703857 0.1831207275390625 11.25817108154297 0.1836280822753906 11.2551326751709 C 0.1837062835693359 11.25466251373291 0.1837978363037109 11.25410270690918 0.1838760375976562 11.25363349914551 C 0.1843833923339844 11.25059509277344 0.1849021911621094 11.24747848510742 0.1854114532470703 11.24444103240967 C 0.1854496002197266 11.24420642852783 0.1855411529541016 11.24366664886475 0.1855792999267578 11.24343204498291 C 0.1860885620117188 11.24039459228516 0.1866931915283203 11.23678588867188 0.1872043609619141 11.23374843597412 C 0.1872043609619141 11.23374843597412 0.1872272491455078 11.23361492156982 0.1872272491455078 11.23361492156982 C 0.1877365112304688 11.23057746887207 0.1883354187011719 11.22702693939209 0.1888484954833984 11.22399044036865 C 0.1888885498046875 11.22375583648682 0.1889743804931641 11.22324752807617 0.1890144348144531 11.22301292419434 C 0.1895256042480469 11.2199764251709 0.1900596618652344 11.21682929992676 0.1905746459960938 11.21379375457764 C 0.1906547546386719 11.21332454681396 0.1907424926757812 11.21280288696289 0.1908226013183594 11.21233463287354 C 0.1913375854492188 11.20929908752441 0.1918239593505859 11.20644092559814 0.1923408508300781 11.20340633392334 C 0.1924610137939453 11.20270252227783 0.1925106048583984 11.20241546630859 0.1926307678222656 11.20171165466309 C 0.1930732727050781 11.19911098480225 0.1937046051025391 11.19541645050049 0.1941509246826172 11.19281578063965 C 0.1942710876464844 11.19211196899414 0.1943073272705078 11.19189739227295 0.1944293975830078 11.19119358062744 C 0.1949481964111328 11.18815994262695 0.1954345703125 11.18532371520996 0.1959571838378906 11.18229103088379 C 0.1960391998291016 11.18182182312012 0.1961517333984375 11.18116855621338 0.1962318420410156 11.18070030212402 C 0.1967544555664062 11.17766666412354 0.1972789764404297 11.17462921142578 0.1978015899658203 11.17159652709961 C 0.1978836059570312 11.17112827301025 0.197906494140625 11.17099285125732 0.1979885101318359 11.17052459716797 C 0.1985130310058594 11.1674919128418 0.1990280151367188 11.16451454162598 0.1995563507080078 11.16148281097412 C 0.1995964050292969 11.16124820709229 0.1996517181396484 11.16092967987061 0.1996917724609375 11.16069507598877 C 0.2002182006835938 11.15766429901123 0.2007732391357422 11.15448188781738 0.2013015747070312 11.15145111083984 C 0.2013835906982422 11.15098285675049 0.2014732360839844 11.15046882629395 0.2015552520751953 11.14999961853027 C 0.2020854949951172 11.14696884155273 0.2025623321533203 11.14423561096191 0.203094482421875 11.14120578765869 C 0.2031764984130859 11.14073753356934 0.2033443450927734 11.13978099822998 0.2034263610839844 11.13931274414062 C 0.2038822174072266 11.13671588897705 0.2045001983642578 11.13319396972656 0.2049579620361328 11.1305980682373 C 0.2050399780273438 11.13012981414795 0.2051849365234375 11.12931156158447 0.2052669525146484 11.12884330749512 C 0.2057247161865234 11.12624740600586 0.2063465118408203 11.12272357940674 0.2068061828613281 11.12012767791748 C 0.2068901062011719 11.11966037750244 0.2070636749267578 11.11867141723633 0.2071475982666016 11.11820316314697 C 0.2076835632324219 11.11517524719238 0.2081527709960938 11.11252689361572 0.2086906433105469 11.10949993133545 C 0.2087745666503906 11.10903167724609 0.2088966369628906 11.10834217071533 0.2089805603027344 11.10787391662598 C 0.2095203399658203 11.1048469543457 0.2100467681884766 11.10188102722168 0.2105884552001953 11.09885406494141 C 0.2106304168701172 11.09862041473389 0.2107181549072266 11.09813117980957 0.2107601165771484 11.09789752960205 C 0.2112998962402344 11.09487056732178 0.2118663787841797 11.09170818328857 0.2124099731445312 11.08868217468262 C 0.2124519348144531 11.0884485244751 0.2124843597412109 11.08826351165771 0.2125263214111328 11.0880298614502 C 0.2130699157714844 11.08500385284424 0.2136478424072266 11.08178520202637 0.2141933441162109 11.07876014709473 C 0.2142772674560547 11.07829284667969 0.2143764495849609 11.07774353027344 0.2144603729248047 11.0772762298584 C 0.2150058746337891 11.07425117492676 0.2155227661132812 11.07139301300049 0.2160701751708984 11.06836891174316 C 0.2161960601806641 11.06766700744629 0.2162380218505859 11.06744289398193 0.2163639068603516 11.06674194335938 C 0.2168331146240234 11.06414985656738 0.2174930572509766 11.06051540374756 0.2179641723632812 11.05792427062988 C 0.2180919647216797 11.05722332000732 0.2181625366210938 11.05683326721191 0.2182903289794922 11.05613231658936 C 0.2188396453857422 11.05310821533203 0.2193565368652344 11.05027866363525 0.2199077606201172 11.04725551605225 C 0.2199516296386719 11.04702281951904 0.2201099395751953 11.04615592956543 0.2201519012451172 11.04592227935791 C 0.2207050323486328 11.0428991317749 0.2212963104248047 11.0396671295166 0.2218494415283203 11.03664493560791 C 0.221893310546875 11.03641128540039 0.2219753265380859 11.03596782684326 0.2220172882080078 11.03573513031006 C 0.2226505279541016 11.03228092193604 0.2231426239013672 11.02960968017578 0.2237796783447266 11.02615737915039 C 0.2237796783447266 11.02615737915039 0.2238140106201172 11.02596473693848 0.2238140106201172 11.02596473693848 C 0.2243709564208984 11.0229434967041 0.2250156402587891 11.01945304870605 0.2255744934082031 11.016432762146 C 0.2256183624267578 11.01620006561279 0.2257461547851562 11.01550579071045 0.2257900238037109 11.01527309417725 C 0.226348876953125 11.01225280761719 0.2269382476806641 11.00907230377197 0.2274990081787109 11.00605297088623 C 0.2275867462158203 11.00558662414551 0.2276439666748047 11.00527381896973 0.2277317047119141 11.00480651855469 C 0.2282924652099609 11.00178718566895 0.2288780212402344 10.99865055084229 0.2294406890869141 10.99563121795654 C 0.2295284271240234 10.99516487121582 0.2296085357666016 10.99473667144775 0.2296943664550781 10.99426937103271 C 0.2302589416503906 10.99125099182129 0.2308311462402344 10.98819541931152 0.2313976287841797 10.9851770401001 C 0.2314834594726562 10.98471069335938 0.2315616607666016 10.98429489135742 0.2316493988037109 10.9838285446167 C 0.2322158813476562 10.98081016540527 0.2328090667724609 10.97765064239502 0.2333774566650391 10.97463321685791 C 0.2334651947021484 10.97416687011719 0.2335014343261719 10.97398281097412 0.2335891723632812 10.9735164642334 C 0.2341575622558594 10.97049903869629 0.2348041534423828 10.96706581115723 0.2353763580322266 10.96404838562012 C 0.2354202270507812 10.96381568908691 0.2354259490966797 10.96378707885742 0.2354698181152344 10.96355438232422 C 0.2361221313476562 10.96010780334473 0.2366828918457031 10.95713996887207 0.2373390197753906 10.95369529724121 C 0.2373390197753906 10.95369529724121 0.2373695373535156 10.95352935791016 0.2373695373535156 10.95352935791016 C 0.2379417419433594 10.95051383972168 0.2386093139648438 10.9470100402832 0.2391853332519531 10.94399642944336 C 0.2392730712890625 10.94352912902832 0.2393226623535156 10.94327163696289 0.2394123077392578 10.94280624389648 C 0.2399864196777344 10.93979072570801 0.2405319213867188 10.93694305419922 0.2411079406738281 10.93392944335938 C 0.2412433624267578 10.93323135375977 0.2413234710693359 10.93281173706055 0.2414569854736328 10.9321117401123 C 0.2419528961181641 10.92952919006348 0.2426319122314453 10.92598342895508 0.2431297302246094 10.92340087890625 C 0.2432193756103516 10.92293548583984 0.2433681488037109 10.92215919494629 0.2434577941894531 10.92169380187988 C 0.2440376281738281 10.91868019104004 0.2446060180664062 10.91573715209961 0.2451877593994141 10.91272354125977 C 0.2452316284179688 10.91249084472656 0.2453689575195312 10.91178703308105 0.2454128265380859 10.91155433654785 C 0.2459964752197266 10.90854263305664 0.2466583251953125 10.90511703491211 0.2472438812255859 10.9021053314209 C 0.2472877502441406 10.9018726348877 0.2473163604736328 10.90172576904297 0.2473621368408203 10.90149307250977 C 0.2480297088623047 10.89805221557617 0.2485923767089844 10.89515686035156 0.2492637634277344 10.8917179107666 C 0.2492637634277344 10.8917179107666 0.24932861328125 10.89138221740723 0.24932861328125 10.89138221740723 C 0.2499980926513672 10.88794136047363 0.2505130767822266 10.88530349731445 0.2511863708496094 10.88186454772949 C 0.2512321472167969 10.88163185119629 0.2513103485107422 10.88123321533203 0.2513561248779297 10.88100051879883 C 0.2519454956054688 10.87799072265625 0.2525577545166016 10.8748607635498 0.2531490325927734 10.87185287475586 C 0.2532405853271484 10.87138748168945 0.2533454895019531 10.8708553314209 0.2534370422363281 10.87038993835449 C 0.2540283203125 10.86738014221191 0.2546215057373047 10.86436653137207 0.2552146911621094 10.86135864257812 C 0.2553062438964844 10.86089324951172 0.2553958892822266 10.86043930053711 0.2554874420166016 10.8599739074707 C 0.2559967041015625 10.85739707946777 0.2567119598388672 10.85377883911133 0.2572231292724609 10.8512020111084 C 0.2573604583740234 10.85050392150879 0.2574748992919922 10.84992599487305 0.2576141357421875 10.84922790527344 C 0.258209228515625 10.84622192382812 0.2587528228759766 10.84348487854004 0.2593498229980469 10.84047889709473 C 0.2594432830810547 10.84001350402832 0.2595138549804688 10.83965492248535 0.2596073150634766 10.83918952941895 C 0.2602043151855469 10.83618354797363 0.260833740234375 10.8330249786377 0.2614345550537109 10.83001899719238 C 0.2615280151367188 10.82955551147461 0.2615547180175781 10.82942390441895 0.2616462707519531 10.82895851135254 C 0.2622470855712891 10.82595443725586 0.2629413604736328 10.82248115539551 0.2635440826416016 10.8194751739502 C 0.2635917663574219 10.81924438476562 0.2635154724121094 10.81962013244629 0.2635631561279297 10.81938743591309 C 0.2641658782958984 10.81638336181641 0.2648239135742188 10.8131046295166 0.2654285430908203 10.81010055541992 C 0.2655220031738281 10.80963706970215 0.2656421661376953 10.80903625488281 0.2657356262207031 10.80857276916504 C 0.2663402557373047 10.80556869506836 0.2668972015380859 10.80281829833984 0.2675037384033203 10.7998161315918 C 0.2675971984863281 10.79935073852539 0.2677574157714844 10.79855918884277 0.2678508758544922 10.798095703125 C 0.26837158203125 10.7955207824707 0.2690582275390625 10.79213523864746 0.2695789337158203 10.7895622253418 C 0.2697200775146484 10.78886604309082 0.2698688507080078 10.78813362121582 0.2700119018554688 10.78743743896484 C 0.2705345153808594 10.78486442565918 0.2712020874023438 10.78158187866211 0.2717247009277344 10.77900886535645 C 0.271820068359375 10.77854537963867 0.2720146179199219 10.777587890625 0.2721099853515625 10.77712440490723 C 0.2726345062255859 10.77455139160156 0.2733097076416016 10.77124786376953 0.273834228515625 10.76867485046387 C 0.2740249633789062 10.76774787902832 0.2740993499755859 10.76738739013672 0.2742881774902344 10.76645851135254 C 0.27490234375 10.76345825195312 0.275390625 10.76108169555664 0.2760066986083984 10.75808143615723 C 0.2760543823242188 10.75784873962402 0.2761993408203125 10.75714111328125 0.2762470245361328 10.75691032409668 C 0.2767753601074219 10.75433921813965 0.2775306701660156 10.75067710876465 0.2780590057373047 10.74810600280762 C 0.2781562805175781 10.74764251708984 0.2781791687011719 10.74752998352051 0.2782745361328125 10.74706649780273 C 0.2788925170898438 10.74406814575195 0.2795734405517578 10.74077606201172 0.2801933288574219 10.73777770996094 C 0.2802410125732422 10.73754692077637 0.2803745269775391 10.73690795898438 0.2804222106933594 10.7366771697998 C 0.2810420989990234 10.73367881774902 0.28167724609375 10.73061752319336 0.2823009490966797 10.72762107849121 C 0.2824459075927734 10.72692680358887 0.2824764251708984 10.72677230834961 0.2826213836669922 10.72607803344727 C 0.2832450866699219 10.72307968139648 0.2838535308837891 10.72015953063965 0.2844791412353516 10.7171630859375 C 0.2845745086669922 10.71669960021973 0.28466796875 10.71625518798828 0.2847652435302734 10.71579170227051 C 0.2853908538818359 10.71279525756836 0.2860221862792969 10.70977020263672 0.2866497039794922 10.70677375793457 C 0.2867469787597656 10.7063102722168 0.2868404388427734 10.70586585998535 0.2869377136230469 10.70540237426758 C 0.2875652313232422 10.70240783691406 0.2882328033447266 10.6992301940918 0.2888622283935547 10.69623565673828 C 0.2889118194580078 10.69600296020508 0.2889919281005859 10.69562149047852 0.2890396118164062 10.69538879394531 C 0.2897605895996094 10.69196701049805 0.2902870178222656 10.6894702911377 0.2910099029541016 10.68604850769043 C 0.2910575866699219 10.68581581115723 0.2910499572753906 10.68585395812988 0.2910995483398438 10.68562316894531 C 0.2917308807373047 10.6826286315918 0.2924518585205078 10.67922019958496 0.2930870056152344 10.67622756958008 C 0.2931842803955078 10.67576599121094 0.2932281494140625 10.67556381225586 0.2933254241943359 10.67510032653809 C 0.2939605712890625 10.6721076965332 0.2946014404296875 10.6690845489502 0.2952384948730469 10.66609382629395 C 0.2953376770019531 10.66563034057617 0.2954540252685547 10.66507720947266 0.2955532073974609 10.66461563110352 C 0.2961902618408203 10.66162300109863 0.2968311309814453 10.65861129760742 0.2974700927734375 10.65562057495117 C 0.2975692749023438 10.65515899658203 0.2976512908935547 10.65477180480957 0.2977504730224609 10.6543083190918 C 0.2984809875488281 10.6508903503418 0.2989635467529297 10.64863967895508 0.2996959686279297 10.64522171020508 C 0.2997951507568359 10.64476013183594 0.2998561859130859 10.64447021484375 0.2999553680419922 10.64400863647461 C 0.30059814453125 10.64101791381836 0.3013076782226562 10.6377124786377 0.3019504547119141 10.63472175598145 C 0.3020496368408203 10.6342601776123 0.3020286560058594 10.63436317443848 0.3021278381347656 10.63390159606934 C 0.3028640747070312 10.63048362731934 0.3034610748291016 10.62771224975586 0.30419921875 10.62429809570312 C 0.3042488098144531 10.62406539916992 0.3042354583740234 10.62412643432617 0.3042850494384766 10.6238956451416 C 0.305023193359375 10.62047958374023 0.3056507110595703 10.61758804321289 0.3063907623291016 10.61417198181152 C 0.3063907623291016 10.61417198181152 0.3064613342285156 10.61384582519531 0.3064613342285156 10.61384582519531 C 0.3071098327636719 10.61085891723633 0.3078441619873047 10.60747528076172 0.3084945678710938 10.60448837280273 C 0.3085956573486328 10.60402679443359 0.3086662292480469 10.60369682312012 0.3087673187255859 10.60323524475098 C 0.3095111846923828 10.59982109069824 0.3100357055664062 10.59741020202637 0.3107814788818359 10.59399795532227 C 0.310882568359375 10.59353637695312 0.3108940124511719 10.59348678588867 0.3109951019287109 10.59302520751953 C 0.3117408752441406 10.58961296081543 0.3122749328613281 10.5871696472168 0.3130245208740234 10.5837574005127 C 0.3131256103515625 10.58329582214355 0.31317138671875 10.58308792114258 0.3132724761962891 10.58262634277344 C 0.3140201568603516 10.57921409606934 0.3145923614501953 10.57661247253418 0.3153438568115234 10.57320213317871 C 0.3153934478759766 10.57297134399414 0.3154182434082031 10.57286262512207 0.3154678344726562 10.5726318359375 C 0.3162193298339844 10.5692195892334 0.3168621063232422 10.56630325317383 0.3176174163818359 10.56289291381836 C 0.3176670074462891 10.56266403198242 0.3176651000976562 10.56267547607422 0.3177165985107422 10.56244468688965 C 0.3192234039306641 10.55562400817871 0.3206272125244141 10.54929351806641 0.3221454620361328 10.54247665405273 C 0.3221454620361328 10.54247665405273 0.3222026824951172 10.54221725463867 0.3222026824951172 10.54221725463867 C 0.3229618072509766 10.53880882263184 0.3236141204833984 10.53588104248047 0.3243751525878906 10.53247451782227 C 0.3244266510009766 10.5322437286377 0.3244686126708984 10.53205680847168 0.3245201110839844 10.53182601928711 C 0.3251876831054688 10.52884483337402 0.3259143829345703 10.52559471130371 0.3265819549560547 10.52261543273926 C 0.3266849517822266 10.52215385437012 0.3268013000488281 10.52164268493652 0.326904296875 10.52118110656738 C 0.3275718688964844 10.51820182800293 0.3282642364501953 10.51511764526367 0.3289356231689453 10.51213836669922 C 0.3290386199951172 10.51167678833008 0.3290805816650391 10.51149368286133 0.3291854858398438 10.51103210449219 C 0.3299503326416016 10.50762748718262 0.3304939270019531 10.50522041320801 0.3312625885009766 10.50181579589844 C 0.3313674926757812 10.50135612487793 0.3313999176025391 10.50121307373047 0.3315029144287109 10.50075340270996 C 0.3321762084960938 10.49777412414551 0.3329658508300781 10.49428939819336 0.3336410522460938 10.49131011962891 C 0.3336410522460938 10.49131011962891 0.3337211608886719 10.49095726013184 0.3337211608886719 10.49095726013184 C 0.3344917297363281 10.48755264282227 0.3350963592529297 10.48489189147949 0.3358707427978516 10.48148918151855 C 0.3359241485595703 10.48125839233398 0.3359699249267578 10.48105049133301 0.3360233306884766 10.48082160949707 C 0.3367977142333984 10.47741889953613 0.3374080657958984 10.47473526000977 0.3381862640380859 10.47133445739746 C 0.3382377624511719 10.47110366821289 0.3383159637451172 10.47076034545898 0.3383693695068359 10.47052955627441 C 0.3390483856201172 10.46755409240723 0.3398036956787109 10.46425437927246 0.340484619140625 10.46127891540527 C 0.3405914306640625 10.46081924438477 0.3406562805175781 10.46052932739258 0.3407630920410156 10.46006965637207 C 0.3414440155029297 10.45709419250488 0.3421401977539062 10.45406532287598 0.3428249359130859 10.45109176635742 C 0.3429298400878906 10.45063209533691 0.3430461883544922 10.45012474060059 0.3431510925292969 10.44966506958008 C 0.3438358306884766 10.44669151306152 0.3445014953613281 10.44380378723145 0.3451881408691406 10.44083023071289 C 0.3452949523925781 10.44037055969238 0.3454399108886719 10.43973541259766 0.3455467224121094 10.43927574157715 C 0.3462333679199219 10.43630218505859 0.3469257354736328 10.43330383300781 0.3476161956787109 10.43033218383789 C 0.3476676940917969 10.43010139465332 0.3477897644042969 10.42957496643066 0.3478431701660156 10.42934608459473 C 0.3485336303710938 10.42637252807617 0.3493614196777344 10.42280006408691 0.3500518798828125 10.41982841491699 C 0.3500518798828125 10.41982841491699 0.3500652313232422 10.41977500915527 0.3500652313232422 10.41977500915527 C 0.3508548736572266 10.41637802124023 0.3515434265136719 10.41341781616211 0.3523368835449219 10.41002082824707 C 0.3523902893066406 10.40979194641113 0.3524131774902344 10.40969467163086 0.3524665832519531 10.40946578979492 C 0.3532581329345703 10.40607070922852 0.3538913726806641 10.40335845947266 0.3546867370605469 10.39996337890625 C 0.3547401428222656 10.39973449707031 0.3548240661621094 10.39937400817871 0.3548793792724609 10.39914512634277 C 0.3556728363037109 10.39575004577637 0.3562793731689453 10.39316368103027 0.3570766448974609 10.3897705078125 C 0.3571319580078125 10.38954162597656 0.3572406768798828 10.38907814025879 0.3572940826416016 10.38884925842285 C 0.3580913543701172 10.38545608520508 0.3587188720703125 10.38278961181641 0.3595180511474609 10.37939643859863 C 0.3595733642578125 10.3791675567627 0.3596210479736328 10.37896537780762 0.3596744537353516 10.37873649597168 C 0.3604736328125 10.37534332275391 0.3611316680908203 10.3725643157959 0.3619327545166016 10.36917114257812 C 0.3619880676269531 10.36894226074219 0.3620471954345703 10.36869430541992 0.3621006011962891 10.36846542358398 C 0.3629035949707031 10.36507225036621 0.3635692596435547 10.36225891113281 0.3643741607666016 10.3588695526123 C 0.3643741607666016 10.3588695526123 0.3644790649414062 10.35842704772949 0.3644790649414062 10.35842704772949 C 0.3660907745361328 10.35164642333984 0.3675270080566406 10.34561157226562 0.3691482543945312 10.33883476257324 C 0.3692035675048828 10.33860397338867 0.3692474365234375 10.33841705322266 0.3693027496337891 10.33818817138672 C 0.3701133728027344 10.33479881286621 0.3707809448242188 10.33201217651367 0.3715934753417969 10.3286247253418 C 0.3716487884521484 10.32839393615723 0.3716983795166016 10.32818603515625 0.3717536926269531 10.32795715332031 C 0.3725662231445312 10.32456970214844 0.3731746673583984 10.32203674316406 0.3739891052246094 10.31864929199219 C 0.3740997314453125 10.31819152832031 0.3741569519042969 10.31795310974121 0.374267578125 10.31749534606934 C 0.3750820159912109 10.31410980224609 0.3756637573242188 10.31169891357422 0.3764820098876953 10.30831336975098 C 0.3765926361083984 10.3078556060791 0.3766021728515625 10.30781555175781 0.3767127990722656 10.30735778808594 C 0.3775310516357422 10.3039722442627 0.3781528472900391 10.30139541625977 0.3789730072021484 10.29801177978516 C 0.3790302276611328 10.29778289794922 0.3791007995605469 10.29748916625977 0.3791561126708984 10.29726028442383 C 0.3807964324951172 10.29049110412598 0.3822498321533203 10.28451347351074 0.3839015960693359 10.27775001525879 C 0.3839015960693359 10.27775001525879 0.3840007781982422 10.27734375 0.3840007781982422 10.27734375 C 0.3848247528076172 10.27396202087402 0.3855304718017578 10.27108001708984 0.3863582611083984 10.26769828796387 C 0.3863582611083984 10.26769828796387 0.3865032196044922 10.26710891723633 0.3865032196044922 10.26710891723633 C 0.3873310089111328 10.26372718811035 0.3879585266113281 10.26116752624512 0.3887882232666016 10.25778770446777 C 0.3889007568359375 10.2573299407959 0.388946533203125 10.25714683532715 0.3890590667724609 10.25668907165527 C 0.3898887634277344 10.25330924987793 0.3904991149902344 10.25083351135254 0.3913307189941406 10.2474536895752 C 0.391387939453125 10.24722480773926 0.3914890289306641 10.2468147277832 0.3915443420410156 10.24658584594727 C 0.3923778533935547 10.24320602416992 0.3930130004882812 10.24063682556152 0.3938484191894531 10.23725891113281 C 0.3939056396484375 10.23703002929688 0.3940219879150391 10.2365550994873 0.3940792083740234 10.23632621765137 C 0.3949146270751953 10.23294830322266 0.3955955505371094 10.23019790649414 0.3964347839355469 10.22681999206543 C 0.3964347839355469 10.22681999206543 0.3964824676513672 10.22662353515625 0.3964824676513672 10.22662353515625 C 0.3989982604980469 10.21649169921875 0.4013729095458984 10.20696830749512 0.4039096832275391 10.19684410095215 C 0.4039669036865234 10.19661521911621 0.4040546417236328 10.19626998901367 0.4041118621826172 10.19604110717773 C 0.4049568176269531 10.19266700744629 0.4056148529052734 10.19004821777344 0.406463623046875 10.18667411804199 C 0.4065208435058594 10.18644523620605 0.4066085815429688 10.18609809875488 0.4066658020019531 10.18587112426758 C 0.4075126647949219 10.18249702453613 0.4081859588623047 10.1798267364502 0.4090366363525391 10.17645454406738 C 0.4090938568115234 10.17622756958008 0.4091682434082031 10.17593383789062 0.4092254638671875 10.17570495605469 C 0.4100761413574219 10.17233276367188 0.4107799530029297 10.16955375671387 0.4116325378417969 10.16618156433105 C 0.4116325378417969 10.16618156433105 0.4117527008056641 10.16570663452148 0.4117527008056641 10.16570663452148 C 0.4143142700195312 10.15559196472168 0.4166736602783203 10.14631271362305 0.4192562103271484 10.13620758056641 C 0.4193153381347656 10.1359806060791 0.4193992614746094 10.13565254211426 0.4194564819335938 10.13542556762695 C 0.420318603515625 10.13205718994141 0.4209632873535156 10.12953758239746 0.4218273162841797 10.12616920471191 C 0.4219436645507812 10.12571334838867 0.4219684600830078 10.12561798095703 0.4220848083496094 10.12516212463379 C 0.4228401184082031 10.12221717834473 0.4236431121826172 10.11909294128418 0.4244003295898438 10.11614799499512 C 0.4245185852050781 10.11569213867188 0.4246234893798828 10.11528015136719 0.4247417449951172 10.11482429504395 C 0.4254989624023438 10.11187934875488 0.4262905120849609 10.10880470275879 0.4270515441894531 10.10585975646973 C 0.4271678924560547 10.10540390014648 0.4272232055664062 10.10519218444824 0.4273414611816406 10.104736328125 C 0.4281024932861328 10.10179138183594 0.4289665222167969 10.09844779968262 0.4297275543212891 10.09550476074219 C 0.4297866821289062 10.09527587890625 0.4298305511474609 10.09510612487793 0.4298896789550781 10.09487915039062 C 0.4316329956054688 10.08815002441406 0.4332027435302734 10.08210754394531 0.4349555969238281 10.07538223266602 C 0.4349555969238281 10.07538223266602 0.4350566864013672 10.07499122619629 0.4350566864013672 10.07499122619629 C 0.4359340667724609 10.07162857055664 0.4366989135742188 10.06869697570801 0.4375782012939453 10.06533432006836 C 0.4376373291015625 10.06510734558105 0.4376506805419922 10.06505584716797 0.4377098083496094 10.06482887268066 C 0.4385890960693359 10.06146812438965 0.4392967224121094 10.05876350402832 0.4401779174804688 10.0554027557373 C 0.4402370452880859 10.05517578125 0.4403419494628906 10.05478096008301 0.4404010772705078 10.05455207824707 C 0.4412822723388672 10.05119323730469 0.441986083984375 10.04851341247559 0.4428691864013672 10.0451545715332 C 0.4429302215576172 10.0449275970459 0.4429798126220703 10.04473686218262 0.4430389404296875 10.04450988769531 C 0.4439239501953125 10.04115104675293 0.4446525573730469 10.03838539123535 0.4455375671386719 10.0350284576416 C 0.4455986022949219 10.03479957580566 0.445648193359375 10.03461074829102 0.445709228515625 10.03438186645508 C 0.4483680725097656 10.02430725097656 0.4509181976318359 10.01469230651855 0.4535999298095703 10.0046272277832 C 0.4536609649658203 10.0044002532959 0.4535579681396484 10.00478172302246 0.4536190032958984 10.00455474853516 C 0.4545135498046875 10.00119972229004 0.4552822113037109 9.998315811157227 0.4561786651611328 9.994962692260742 C 0.4562397003173828 9.994735717773438 0.4563179016113281 9.994443893432617 0.4563789367675781 9.994216918945312 C 0.457275390625 9.990861892700195 0.4580268859863281 9.98805046081543 0.4589271545410156 9.984697341918945 C 0.4589271545410156 9.984697341918945 0.4590530395507812 9.984226226806641 0.4590530395507812 9.984226226806641 C 0.4599514007568359 9.980873107910156 0.4607162475585938 9.97802734375 0.4616184234619141 9.974674224853516 C 0.4616794586181641 9.974447250366211 0.4617347717285156 9.974241256713867 0.4617958068847656 9.974014282226562 C 0.4626960754394531 9.970661163330078 0.4634647369384766 9.967807769775391 0.4643688201904297 9.964458465576172 C 0.4643688201904297 9.964458465576172 0.4644584655761719 9.964126586914062 0.4644584655761719 9.964126586914062 C 0.465362548828125 9.960775375366211 0.4662055969238281 9.957658767700195 0.4671115875244141 9.954307556152344 C 0.4671726226806641 9.954080581665039 0.4670677185058594 9.9544677734375 0.4671306610107422 9.954240798950195 C 0.4689426422119141 9.947540283203125 0.4706935882568359 9.941089630126953 0.4725170135498047 9.934392929077148 C 0.4725170135498047 9.934392929077148 0.4726028442382812 9.934080123901367 0.4726028442382812 9.934080123901367 C 0.4735145568847656 9.930732727050781 0.4743156433105469 9.927791595458984 0.4752292633056641 9.924444198608398 C 0.4752922058105469 9.924219131469727 0.4753131866455078 9.924137115478516 0.4753761291503906 9.923912048339844 C 0.4762897491455078 9.920564651489258 0.4770488739013672 9.917791366577148 0.4779644012451172 9.914445877075195 C 0.47802734375 9.914218902587891 0.4780979156494141 9.913961410522461 0.4781589508056641 9.913734436035156 C 0.4790763854980469 9.910388946533203 0.4798564910888672 9.907546997070312 0.4807758331298828 9.904201507568359 C 0.4808368682861328 9.903976440429688 0.4808006286621094 9.904111862182617 0.4808616638183594 9.903886795043945 C 0.4845390319824219 9.890506744384766 0.4881477355957031 9.877449035644531 0.4918651580810547 9.86408805847168 C 0.4919281005859375 9.863861083984375 0.4918556213378906 9.864118576049805 0.4919185638427734 9.863893508911133 C 0.4928474426269531 9.860551834106445 0.4937191009521484 9.857429504394531 0.4946498870849609 9.854089736938477 C 0.4947128295898438 9.853864669799805 0.4946613311767578 9.854049682617188 0.4947242736816406 9.853824615478516 C 0.4956550598144531 9.850484848022461 0.496551513671875 9.847278594970703 0.4974861145019531 9.843940734863281 C 0.4974861145019531 9.843940734863281 0.4974918365478516 9.843915939331055 0.4974918365478516 9.843915939331055 C 0.4984264373779297 9.840576171875 0.4993381500244141 9.837324142456055 0.500274658203125 9.833988189697266 C 0.500274658203125 9.833988189697266 0.5003299713134766 9.833793640136719 0.5003299713134766 9.833793640136719 C 0.5040760040283203 9.820444107055664 0.5076656341552734 9.807723999023438 0.5114536285400391 9.794391632080078 C 0.5115814208984375 9.793939590454102 0.5115795135498047 9.793947219848633 0.5117073059082031 9.793497085571289 C 0.5126533508300781 9.790163040161133 0.5133800506591797 9.787612915039062 0.5143280029296875 9.784280776977539 C 0.5143928527832031 9.784053802490234 0.5144920349121094 9.78370475769043 0.514556884765625 9.783479690551758 C 0.5155048370361328 9.780147552490234 0.516265869140625 9.777482986450195 0.5172176361083984 9.774152755737305 C 0.5172805786132812 9.773927688598633 0.5173282623291016 9.773763656616211 0.5173931121826172 9.773536682128906 C 0.5212001800537109 9.760211944580078 0.5248794555664062 9.747411727905273 0.5287246704101562 9.734104156494141 C 0.5287246704101562 9.734104156494141 0.5287971496582031 9.733858108520508 0.5287971496582031 9.733858108520508 C 0.5297584533691406 9.73052978515625 0.5305957794189453 9.727638244628906 0.5315589904785156 9.724311828613281 C 0.5316238403320312 9.724086761474609 0.5316734313964844 9.723918914794922 0.53173828125 9.72369384765625 C 0.5327033996582031 9.720367431640625 0.5334644317626953 9.717746734619141 0.5344295501708984 9.714422225952148 C 0.5344963073730469 9.714197158813477 0.534637451171875 9.713708877563477 0.5347023010253906 9.713485717773438 C 0.5356693267822266 9.710159301757812 0.5364360809326172 9.707529067993164 0.5374050140380859 9.704204559326172 C 0.5374698638916016 9.703981399536133 0.5374774932861328 9.703952789306641 0.5375442504882812 9.703727722167969 C 0.5404510498046875 9.693756103515625 0.5432415008544922 9.684225082397461 0.5461711883544922 9.674264907836914 C 0.5462379455566406 9.674039840698242 0.5461711883544922 9.67426872253418 0.5462360382080078 9.674043655395508 C 0.5472126007080078 9.670722961425781 0.5480861663818359 9.667757034301758 0.5490665435791016 9.664438247680664 C 0.5491313934326172 9.664213180541992 0.5491390228271484 9.664188385009766 0.5492057800292969 9.663965225219727 C 0.5501842498779297 9.66064453125 0.5510005950927734 9.657880783081055 0.5519828796386719 9.654561996459961 C 0.5520496368408203 9.654336929321289 0.5521316528320312 9.654062271118164 0.5521965026855469 9.653837203979492 C 0.5531787872314453 9.650518417358398 0.5539379119873047 9.647956848144531 0.5549221038818359 9.64463996887207 C 0.5550556182861328 9.644189834594727 0.5550670623779297 9.64415168762207 0.5551986694335938 9.643703460693359 C 0.556182861328125 9.640386581420898 0.5569477081298828 9.637811660766602 0.5579338073730469 9.634494781494141 C 0.5580005645751953 9.634271621704102 0.55804443359375 9.634126663208008 0.5581111907958984 9.633901596069336 C 0.5610713958740234 9.623952865600586 0.5638103485107422 9.614782333374023 0.5667934417724609 9.604843139648438 C 0.5668601989746094 9.604619979858398 0.5669002532958984 9.604486465454102 0.5669670104980469 9.604263305664062 C 0.5679607391357422 9.600950241088867 0.5687713623046875 9.598249435424805 0.5697689056396484 9.594938278198242 C 0.5698356628417969 9.59471321105957 0.5699138641357422 9.594451904296875 0.5699825286865234 9.594226837158203 C 0.5709781646728516 9.590915679931641 0.5717544555664062 9.588340759277344 0.5727519989013672 9.585029602050781 C 0.5728206634521484 9.584806442260742 0.5729618072509766 9.58433723449707 0.5730304718017578 9.584114074707031 C 0.5740280151367188 9.580802917480469 0.5747890472412109 9.578287124633789 0.5757904052734375 9.574977874755859 C 0.5758571624755859 9.574752807617188 0.5759544372558594 9.574430465698242 0.5760231018066406 9.57420539855957 C 0.5770244598388672 9.570896148681641 0.5778694152832031 9.568105697631836 0.5788745880126953 9.564796447753906 C 0.5788745880126953 9.564796447753906 0.5789318084716797 9.564605712890625 0.5789318084716797 9.564605712890625 C 0.5809402465820312 9.557989120483398 0.5828342437744141 9.551763534545898 0.5848503112792969 9.545150756835938 C 0.5849189758300781 9.544925689697266 0.58489990234375 9.544986724853516 0.5849685668945312 9.544763565063477 C 0.5859775543212891 9.541458129882812 0.5867767333984375 9.538839340209961 0.5877895355224609 9.535533905029297 C 0.5878562927246094 9.535310745239258 0.5880069732666016 9.534822463989258 0.5880756378173828 9.534599304199219 C 0.5890865325927734 9.531293869018555 0.5898761749267578 9.528713226318359 0.5908908843994141 9.525409698486328 C 0.5909595489501953 9.525186538696289 0.5910301208496094 9.524951934814453 0.5910987854003906 9.524728775024414 C 0.5921134948730469 9.52142333984375 0.5929298400878906 9.518762588500977 0.5939464569091797 9.515459060668945 C 0.5940151214599609 9.515235900878906 0.5940990447998047 9.514965057373047 0.5941677093505859 9.514741897583008 C 0.595184326171875 9.511438369750977 0.5960693359375 9.508563995361328 0.5970878601074219 9.50526237487793 C 0.5970878601074219 9.50526237487793 0.5971107482910156 9.505186080932617 0.5971107482910156 9.505186080932617 C 0.6001682281494141 9.495279312133789 0.6030807495117188 9.485872268676758 0.6061592102050781 9.475975036621094 C 0.6062278747558594 9.475751876831055 0.6062984466552734 9.47552490234375 0.6063690185546875 9.475301742553711 C 0.6073951721191406 9.472003936767578 0.6082553863525391 9.469240188598633 0.609283447265625 9.4659423828125 C 0.609283447265625 9.4659423828125 0.6094474792480469 9.465419769287109 0.6094474792480469 9.465419769287109 C 0.6104755401611328 9.462121963500977 0.6113548278808594 9.459306716918945 0.6123847961425781 9.456010818481445 C 0.6124553680419922 9.455787658691406 0.6124839782714844 9.455694198608398 0.6125526428222656 9.455471038818359 C 0.6135845184326172 9.452175140380859 0.6144886016845703 9.449291229248047 0.6155204772949219 9.445995330810547 C 0.6155910491943359 9.445772171020508 0.6155586242675781 9.44587516784668 0.6156291961669922 9.445652008056641 C 0.6166629791259766 9.442356109619141 0.6176013946533203 9.439367294311523 0.6186370849609375 9.436073303222656 C 0.6187076568603516 9.435850143432617 0.6186637878417969 9.435985565185547 0.6187343597412109 9.435762405395508 C 0.6218414306640625 9.425878524780273 0.6248207092285156 9.41644287109375 0.6279506683349609 9.40656852722168 C 0.628021240234375 9.406345367431641 0.6280059814453125 9.406396865844727 0.6280765533447266 9.406173706054688 C 0.629119873046875 9.402881622314453 0.6299877166748047 9.400146484375 0.6310348510742188 9.396856307983398 C 0.6311054229736328 9.396633148193359 0.6312046051025391 9.396318435668945 0.6312751770019531 9.396097183227539 C 0.6323204040527344 9.392807006835938 0.6331977844238281 9.390048980712891 0.634246826171875 9.386760711669922 C 0.6343173980712891 9.386537551879883 0.6342983245849609 9.386602401733398 0.634368896484375 9.386379241943359 C 0.6406574249267578 9.366643905639648 0.6468849182128906 9.347261428833008 0.6532630920410156 9.327566146850586 C 0.6532630920410156 9.327566146850586 0.6533432006835938 9.327316284179688 0.6533432006835938 9.327316284179688 C 0.6544055938720703 9.324033737182617 0.6553440093994141 9.321140289306641 0.6564102172851562 9.31785774230957 C 0.6564826965332031 9.317636489868164 0.6565322875976562 9.317481994628906 0.6566047668457031 9.317258834838867 C 0.6608657836914062 9.304134368896484 0.665008544921875 9.29144287109375 0.6693096160888672 9.27833366394043 C 0.6693096160888672 9.27833366394043 0.6693572998046875 9.278188705444336 0.6693572998046875 9.278188705444336 C 0.6704330444335938 9.274911880493164 0.6714611053466797 9.271781921386719 0.6725387573242188 9.268505096435547 C 0.6725387573242188 9.268505096435547 0.6725940704345703 9.268335342407227 0.6725940704345703 9.268335342407227 C 0.6736717224121094 9.265058517456055 0.6747150421142578 9.261892318725586 0.6757946014404297 9.258617401123047 C 0.6757946014404297 9.258617401123047 0.6758155822753906 9.258552551269531 0.6758155822753906 9.258552551269531 C 0.6822967529296875 9.238903045654297 0.6887168884277344 9.219587326049805 0.6952838897705078 9.199977874755859 C 0.6953582763671875 9.199756622314453 0.6953907012939453 9.199661254882812 0.695465087890625 9.199440002441406 C 0.6965599060058594 9.196170806884766 0.6975536346435547 9.193204879760742 0.6986522674560547 9.189937591552734 C 0.6986522674560547 9.189937591552734 0.6986827850341797 9.189844131469727 0.6986827850341797 9.189844131469727 C 0.7118492126464844 9.150638580322266 0.7251701354980469 9.111572265625 0.7386856079101562 9.072528839111328 C 0.7386856079101562 9.072528839111328 0.7386913299560547 9.072515487670898 0.7386913299560547 9.072515487670898 C 0.7398166656494141 9.06926155090332 0.7409286499023438 9.06605339050293 0.7420578002929688 9.062801361083984 C 0.7420578002929688 9.062801361083984 0.7420864105224609 9.062717437744141 0.7420864105224609 9.062717437744141 C 0.7477302551269531 9.046455383300781 0.7533817291259766 9.030269622802734 0.7590866088867188 9.014036178588867 C 0.7590866088867188 9.014036178588867 0.7590980529785156 9.014003753662109 0.7590980529785156 9.014003753662109 C 0.7602386474609375 9.01075553894043 0.7613239288330078 9.007667541503906 0.7624683380126953 9.004421234130859 C 0.7624683380126953 9.004421234130859 0.7625675201416016 9.004138946533203 0.7625675201416016 9.004138946533203 C 0.7694263458251953 8.984664916992188 0.776275634765625 8.965366363525391 0.7832202911376953 8.945932388305664 C 0.7832202911376953 8.945932388305664 0.7832298278808594 8.945905685424805 0.7832298278808594 8.945905685424805 C 0.7843875885009766 8.942667007446289 0.7855110168457031 8.939531326293945 0.7866706848144531 8.93629264831543 C 0.7867488861083984 8.936075210571289 0.7866611480712891 8.936319351196289 0.7867393493652344 8.936101913452148 C 0.7878990173339844 8.932863235473633 0.7890071868896484 8.929775238037109 0.7901706695556641 8.926538467407227 C 0.7901706695556641 8.926538467407227 0.7902126312255859 8.926418304443359 0.7902126312255859 8.926418304443359 C 0.7948627471923828 8.913473129272461 0.7994804382324219 8.900680541992188 0.804168701171875 8.887752532958984 C 0.8042469024658203 8.887533187866211 0.8041324615478516 8.887849807739258 0.8042125701904297 8.887632369995117 C 0.8053836822509766 8.8843994140625 0.8065052032470703 8.881309509277344 0.8076801300048828 8.878080368041992 C 0.8076801300048828 8.878080368041992 0.8077449798583984 8.877899169921875 0.8077449798583984 8.877899169921875 C 0.8089199066162109 8.874668121337891 0.8100471496582031 8.871570587158203 0.8112239837646484 8.868341445922852 C 0.8112239837646484 8.868341445922852 0.8112621307373047 8.868236541748047 0.8112621307373047 8.868236541748047 C 1.590366363525391 6.730209350585938 2.895425796508789 4.844516754150391 4.569366455078125 3.368068695068359 C 4.983566284179688 3.003168106079102 5.615137100219727 3.042926788330078 5.98033332824707 3.456962585449219 C 6.345663070678711 3.871152877807617 6.306053161621094 4.503072738647461 5.891862869262695 4.868402481079102 C 3.418533325195312 7.049962997436523 2.000003814697266 10.19087219238281 2.000003814697266 13.4857931137085 C 2.000003814697266 16.55375289916992 3.194732666015625 19.4380931854248 5.364112854003906 21.60747337341309 C 7.533493041992188 23.77685356140137 10.41782379150391 24.97158241271973 13.4857931137085 24.97158241271973 C 16.55375289916992 24.97158241271973 19.4380931854248 23.77685356140137 21.60747337341309 21.60747337341309 C 23.77685356140137 19.4380931854248 24.97158241271973 16.55375289916992 24.97158241271973 13.4857931137085 C 24.97158241271973 10.41782379150391 23.77685356140137 7.533493041992188 21.60747337341309 5.364112854003906 C 19.4380931854248 3.194732666015625 16.55375289916992 2.000003814697266 13.4857931137085 2.000003814697266 C 12.93350315093994 2.000003814697266 12.4857931137085 1.552282333374023 12.4857931137085 1.000003814697266 C 12.4857931137085 0.4477138519287109 12.93350315093994 3.814697265625e-06 13.4857931137085 3.814697265625e-06 C 13.4857931137085 3.814697265625e-06 13.4857931137085 3.814697265625e-06 13.4857931137085 3.814697265625e-06 Z" stroke="none" fill="#adadad"/></g><path d="M246.721,54.484a.953.953,0,0,0,.472-.125l.01-.005.009,0a.957.957,0,0,0-.943-1.665l-.021.012a.957.957,0,0,0,.474,1.789Z" transform="translate(-209.352 -27.141)" fill="#adadad"/></g></g></svg>