<svg xmlns="http://www.w3.org/2000/svg" width="15.867" height="15.867" viewBox="0 0 15.867 15.867">
  <g id="Iconly_Light_Category" data-name="Iconly/Light/Category" transform="translate(0.6 0.6)">
    <g id="Category">
      <path id="Stroke_1" data-name="Stroke 1" d="M1.8,0h2.4a1.8,1.8,0,0,1,1.8,1.811V4.227a1.8,1.8,0,0,1-1.8,1.811H1.8A1.8,1.8,0,0,1,0,4.227V1.811A1.8,1.8,0,0,1,1.8,0Z" transform="translate(8.68)" fill="none" stroke="#d9aa7d" stroke-linecap="round" stroke-linejoin="round" stroke-miterlimit="10" stroke-width="1.2"/>
      <path id="Stroke_3" data-name="Stroke 3" d="M1.8,0H4.191a1.8,1.8,0,0,1,1.8,1.811V4.227a1.8,1.8,0,0,1-1.8,1.811H1.8A1.8,1.8,0,0,1,0,4.227V1.811A1.8,1.8,0,0,1,1.8,0Z" fill="none" stroke="#d9aa7d" stroke-linecap="round" stroke-linejoin="round" stroke-miterlimit="10" stroke-width="1.2"/>
      <path id="Stroke_5" data-name="Stroke 5" d="M1.8,0H4.191a1.8,1.8,0,0,1,1.8,1.812V4.227a1.8,1.8,0,0,1-1.8,1.811H1.8A1.8,1.8,0,0,1,0,4.227V1.812A1.8,1.8,0,0,1,1.8,0Z" transform="translate(0 8.628)" fill="none" stroke="#d9aa7d" stroke-linecap="round" stroke-linejoin="round" stroke-miterlimit="10" stroke-width="1.2"/>
      <path id="Stroke_7" data-name="Stroke 7" d="M1.8,0h2.4a1.8,1.8,0,0,1,1.8,1.812V4.227a1.8,1.8,0,0,1-1.8,1.811H1.8A1.8,1.8,0,0,1,0,4.227V1.812A1.8,1.8,0,0,1,1.8,0Z" transform="translate(8.68 8.628)" fill="none" stroke="#d9aa7d" stroke-linecap="round" stroke-linejoin="round" stroke-miterlimit="10" stroke-width="1.2"/>
    </g>
  </g>
</svg>
