<svg xmlns="http://www.w3.org/2000/svg" width="20.2" height="20.2" viewBox="0 0 20.2 20.2">
  <g id="Info_Circle" data-name="Info Circle" transform="translate(0.1 0.1)">
    <path id="Info_Circle-2" data-name="Info Circle" d="M0,10A10,10,0,1,1,10,20,10.011,10.011,0,0,1,0,10Zm1.5,0A8.5,8.5,0,1,0,10,1.5,8.51,8.51,0,0,0,1.5,10Zm7.745,2.8a.751.751,0,0,1,.649-.743l.112-.007a.75.75,0,0,1,.1,1.493L10,13.546A.75.75,0,0,1,9.245,12.8Zm-.1-2.456a2,2,0,0,1,.73-1.656c.359-.305.969-.643.969-1.231,0-.5-.436-.741-.98-.741-1.111,0-.872.839-1.46.839a.624.624,0,0,1-.653-.62c0-.589.675-1.46,2.146-1.46,1.394,0,2.32.773,2.32,1.8A2.791,2.791,0,0,1,11,9.262a1.368,1.368,0,0,0-.609,1.362c0,.206-.109.446-.643.446C9.3,11.07,9.145,10.906,9.145,10.34Z" transform="translate(0 0)" fill="#d9aa7d" stroke="#d9aa7d" stroke-width="0.2"/>
  </g>
</svg>
