<svg xmlns="http://www.w3.org/2000/svg" width="32" height="32" viewBox="0 0 32 32"><g transform="translate(-384 -6)"><rect width="32" height="32" rx="3" transform="translate(384 6)" fill="#fff"/><g transform="translate(390.695 12.67)"><path d="M112.3,97.011H101.1a4.1,4.1,0,0,0-4.094,4.094v11.2A4.1,4.1,0,0,0,101.1,116.4h11.2A4.1,4.1,0,0,0,116.4,112.3V101.1A4.1,4.1,0,0,0,112.3,97.011Zm3.108,15.293a3.112,3.112,0,0,1-3.108,3.108H101.1A3.112,3.112,0,0,1,98,112.3V101.1A3.112,3.112,0,0,1,101.1,98h11.2a3.112,3.112,0,0,1,3.108,3.108v11.2Z" transform="translate(-97.011 -97.011)" fill="#5a5a5a"/></g><path d="M182.641,177.266a5.1,5.1,0,1,0-2.4,4.615.488.488,0,0,0,.088-.76l-.007-.007a.491.491,0,0,0-.608-.066,4.082,4.082,0,0,1-2.2.616,4.112,4.112,0,1,1,3.673-2.187.491.491,0,0,0,.083.579l.008.008a.487.487,0,0,0,.773-.111A5.063,5.063,0,0,0,182.641,177.266Z" transform="translate(222.834 -155.194)" fill="#5a5a5a"/><circle cx="1.314" cy="1.314" r="1.314" transform="translate(404.332 15.134)" fill="#5a5a5a"/></g></svg>