<svg xmlns="http://www.w3.org/2000/svg" width="20" height="20" viewBox="0 0 20 20">
  <defs>
    <clipPath id="clip-pardakht">
      <rect width="20" height="20"/>
    </clipPath>
  </defs>
  <g id="pardakht" clip-path="url(#clip-pardakht)">
    <g id="money" transform="translate(0 -2.766)">
      <g id="Group_6341" data-name="Group 6341" transform="translate(11.717 12.891)">
        <g id="Group_6340" data-name="Group 6340">
          <path id="Path_5925" data-name="Path 5925" d="M301.595,259.02a.752.752,0,1,1,.859-.744.391.391,0,0,0,.781,0,1.554,1.554,0,0,0-1.25-1.481v-.2a.391.391,0,0,0-.781,0v.2a1.554,1.554,0,0,0-1.25,1.481,1.588,1.588,0,0,0,1.641,1.525.752.752,0,1,1-.859.744.391.391,0,1,0-.781,0,1.554,1.554,0,0,0,1.25,1.481v.169a.391.391,0,0,0,.781,0v-.169a1.554,1.554,0,0,0,1.25-1.481A1.588,1.588,0,0,0,301.595,259.02Z" transform="translate(-299.954 -256.201)" fill="#d9aa7d"/>
        </g>
      </g>
      <g id="Group_6343" data-name="Group 6343" transform="translate(14.997 11.507)">
        <g id="Group_6342" data-name="Group 6342" transform="translate(0 0)">
          <path id="Path_5926" data-name="Path 5926" d="M386.563,222.663a5.09,5.09,0,0,0-2.079-1.84.391.391,0,1,0-.339.7,4.3,4.3,0,0,1,1.937,5.89.391.391,0,1,0,.69.367,5.084,5.084,0,0,0-.209-5.121Z" transform="translate(-383.924 -220.785)" fill="#d9aa7d"/>
        </g>
      </g>
      <g id="Group_6345" data-name="Group 6345" transform="translate(13.555 11.047)">
        <g id="Group_6344" data-name="Group 6344" transform="translate(0 0)">
          <path id="Path_5927" data-name="Path 5927" d="M347.417,209h-.026a.391.391,0,1,0,0,.781h.024a.391.391,0,0,0,0-.781Z" transform="translate(-347 -209.001)" fill="#d9aa7d"/>
        </g>
      </g>
      <g id="Group_6347" data-name="Group 6347" transform="translate(8.281 13.536)">
        <g id="Group_6346" data-name="Group 6346">
          <path id="Path_5928" data-name="Path 5928" d="M215.221,279.176a4.3,4.3,0,0,1-1.937-5.89.391.391,0,0,0-.69-.367,5.08,5.08,0,0,0,2.288,6.961.391.391,0,1,0,.338-.7Z" transform="translate(-212.002 -272.711)" fill="#d9aa7d"/>
        </g>
      </g>
      <g id="Group_6349" data-name="Group 6349" transform="translate(12.358 20.422)">
        <g id="Group_6348" data-name="Group 6348">
          <path id="Path_5929" data-name="Path 5929" d="M316.793,449h-.023a.391.391,0,0,0,0,.781h.026a.391.391,0,0,0,0-.781Z" transform="translate(-316.378 -448.999)" fill="#d9aa7d"/>
        </g>
      </g>
      <g id="Group_6351" data-name="Group 6351" transform="translate(0 3)">
        <g id="Group_6350" data-name="Group 6350" transform="translate(0 0)">
          <path id="Path_5930" data-name="Path 5930" d="M15.133,9.725a1.793,1.793,0,0,0-.174-.319h1.017a1.8,1.8,0,0,0,0-3.594H12.848A1.8,1.8,0,0,0,11.367,3H1.8a1.8,1.8,0,0,0,0,3.594H4.925a1.792,1.792,0,0,0,0,2.031H3.906a1.8,1.8,0,0,0-1.117,3.2,1.794,1.794,0,0,0,0,2.812,1.794,1.794,0,0,0,0,2.812,1.8,1.8,0,0,0,1.117,3.2h4.6A6.639,6.639,0,1,0,15.133,9.725Zm.843-3.132a1.016,1.016,0,0,1,0,2.031H6.406a1.016,1.016,0,0,1,0-2.031ZM1.8,5.812a1.016,1.016,0,0,1,0-2.031h9.57a1.016,1.016,0,0,1,0,2.031ZM3.906,9.406h9.57a1.015,1.015,0,0,1,.443.1c-.185-.016-.372-.024-.56-.024a6.62,6.62,0,0,0-4.7,1.953H3.906a1.016,1.016,0,1,1,0-2.031Zm0,2.812H7.993a6.622,6.622,0,0,0-1,2.031H3.906a1.016,1.016,0,0,1,0-2.031Zm0,2.812h2.9a6.646,6.646,0,0,0-.024,2.031H3.906a1.016,1.016,0,1,1,0-2.031Zm0,4.844a1.016,1.016,0,1,1,0-2.031H6.945a6.614,6.614,0,0,0,.937,2.031Zm9.453,2.109a5.859,5.859,0,1,1,5.859-5.859A5.866,5.866,0,0,1,13.359,21.984Z" transform="translate(0 -3)" fill="#d9aa7d"/>
        </g>
      </g>
    </g>
  </g>
</svg>
