<svg xmlns="http://www.w3.org/2000/svg" width="16.163" height="20.223" viewBox="0 0 16.163 20.223"><g transform="translate(0.5 0.5)"><circle cx="4.778" cy="4.778" r="4.778" transform="translate(2.801)" fill="none" stroke="#d9aa7d" stroke-linecap="round" stroke-linejoin="round" stroke-miterlimit="10" stroke-width="1"/><path d="M0,3.016a2.215,2.215,0,0,1,.22-.97A4.042,4.042,0,0,1,3.039.426,16.787,16.787,0,0,1,5.382.1,25.053,25.053,0,0,1,9.767.1a16.979,16.979,0,0,1,2.343.33c1.071.22,2.362.659,2.819,1.62a2.27,2.27,0,0,1,0,1.95c-.458.961-1.748,1.4-2.819,1.611a15.716,15.716,0,0,1-2.343.339A25.822,25.822,0,0,1,6.2,6a4.066,4.066,0,0,1-.815-.055,15.423,15.423,0,0,1-2.334-.339C1.968,5.4.687,4.957.22,4A2.279,2.279,0,0,1,0,3.016Z" transform="translate(0 13.185)" fill="none" stroke="#d9aa7d" stroke-linecap="round" stroke-linejoin="round" stroke-miterlimit="10" stroke-width="1"/></g></svg>