<svg xmlns="http://www.w3.org/2000/svg" width="32" height="32" viewBox="0 0 32 32"><g transform="translate(-1141 -5971)"><rect width="32" height="32" rx="3" transform="translate(1141 5971)" fill="#fff"/><g transform="translate(1146.956 5977.635)"><path d="M95.3,97.11a.493.493,0,0,0-.523-.044l-19.059,9.858a.493.493,0,0,0,.006.879l4.985,2.492v4.939a.508.508,0,0,0,.133.351.493.493,0,0,0,.6.094l5.7-3.169,4.365,1.871a.513.513,0,0,0,.3.038.494.494,0,0,0,.4-.388l1.1-5.523a.493.493,0,0,0-.967-.194l-.985,4.927-4.042-1.732a.493.493,0,0,0-.434.022l-5.182,2.879v-4.42a.493.493,0,0,0-.272-.441l-4.391-2.2,17.287-8.942-1.5,7.5a.493.493,0,0,0,.967.193l1.7-8.506A.493.493,0,0,0,95.3,97.11Z" transform="translate(-75.451 -97.011)" fill="#5a5a5a"/></g><g transform="translate(1154.185 5981.578)"><path d="M203.445,161.871a.493.493,0,0,0-.645-.114l-8.544,5.258a.493.493,0,0,0-.235.42v5.258a.493.493,0,0,0,.934.22l1.936-3.872,6.515-6.515A.493.493,0,0,0,203.445,161.871Zm-7.307,6.529a.493.493,0,0,0-.092.128l-1.038,2.076v-2.894l4.733-2.913Z" transform="translate(-194.022 -161.683)" fill="#5a5a5a"/></g></g></svg>