<svg xmlns="http://www.w3.org/2000/svg" width="76.46" height="54" viewBox="0 0 76.46 54"><g transform="translate(-374.75 -4951.001)"><rect width="35" height="29" transform="translate(398 4965.557)" fill="#fff0bc" opacity="0.39"/><g transform="translate(375.5 4951.001)"><line x1="8.254" transform="translate(10.613 33.334)" fill="none" stroke="#d9aa7d" stroke-linecap="round" stroke-width="1.5"/><line x1="18.867" transform="translate(0 38.868)" fill="none" stroke="#d9aa7d" stroke-linecap="round" stroke-width="1.5"/><line x1="14.15" transform="translate(4.717 42.75)" fill="none" stroke="#d9aa7d" stroke-linecap="round" stroke-width="1.5"/><path d="M56.6,54H29.578a1.18,1.18,0,0,1,0-2.359H39.922a5.614,5.614,0,0,1,0-6.13H18.707a5.614,5.614,0,0,1,0,6.131h2.684a1.18,1.18,0,0,1,0,2.359H1.127a1.18,1.18,0,0,1,0-2.359h9.029a5.613,5.613,0,0,1,0-6.131H1.127A1.155,1.155,0,0,1,0,44.332V11.318a1.155,1.155,0,0,1,1.127-1.179h9.031a10.779,10.779,0,0,1,3.116-7.182,9.813,9.813,0,0,1,14.042,0,10.777,10.777,0,0,1,3.116,7.182h9.03a1.155,1.155,0,0,1,1.128,1.179v7.311H46.1a2.195,2.195,0,0,1,1.595.691l9.7,10.147a1.211,1.211,0,0,1,.33.834V40.8a4.622,4.622,0,0,1-4.51,4.716H48.473a5.613,5.613,0,0,1,0,6.13H56.6A1.18,1.18,0,0,1,56.6,54ZM44.18,45.512a2.935,2.935,0,1,0,.035,0Zm-29.749,0a3.068,3.068,0,1,0,2.932,3.066A3,3,0,0,0,14.431,45.511ZM43.806,20.987H40.59V43.154H53.218A2.311,2.311,0,0,0,55.473,40.8V38.516h-3.5a1.18,1.18,0,0,1,0-2.359h3.5V33.72H48.316A4.622,4.622,0,0,1,43.806,29ZM17.573,43.144l-.008.008H33.712V36.045a1.128,1.128,0,1,1,2.255,0v7.108h2.368V12.5H30.442v1.474a1.128,1.128,0,1,1-2.255,0V12.5h-.972a2,2,0,0,0-.419.044h-3.41l0,0,.007-.013.014-.028H12.4v1.474a1.129,1.129,0,1,1-2.255,0V12.5H2.255V43.153h8.4l-.008-.009h3.361a.616.616,0,0,0,.2,0ZM53.726,28.961l-2.3,2.4h4.043v-.574Zm-7.665-7.974V29a2.3,2.3,0,0,0,2.184,2.354l3.886-4.064-1.056-1.1L49.5,27.834a1.093,1.093,0,0,1-1.594,0,1.218,1.218,0,0,1,0-1.667l1.571-1.642L46.1,20.987ZM20.295,2.358a8.057,8.057,0,0,0-7.879,7.782H28.173A8.055,8.055,0,0,0,20.295,2.358ZM25.75,54h-.015a1.18,1.18,0,0,1,0-2.359h.015a1.18,1.18,0,0,1,0,2.359ZM48.084,38.516a1.111,1.111,0,0,1-.8-.345,1.217,1.217,0,0,1,0-1.667,1.093,1.093,0,0,1,1.594,0,1.218,1.218,0,0,1,0,1.667A1.111,1.111,0,0,1,48.084,38.516Z" transform="translate(17.983)" fill="#adadad"/><g transform="translate(4.468 32.027)"><path d="M301.359,284.125a1.381,1.381,0,1,0,.405.977A1.392,1.392,0,0,0,301.359,284.125Z" transform="translate(-299 -283.72)" fill="#d9aa7d"/></g></g></g></svg>