<svg xmlns="http://www.w3.org/2000/svg" width="32" height="32" viewBox="0 0 32 32"><g transform="translate(-1085 -5971)"><rect width="32" height="32" rx="3" transform="translate(1085 5971)" fill="#fff"/><g transform="translate(1090.818 5978.949)"><path d="M125.368,131.362a.506.506,0,0,0-.541-.068,7.659,7.659,0,0,1-.781.311,4.491,4.491,0,0,0,.621-1.185.512.512,0,0,0-.1-.514.493.493,0,0,0-.607-.1,7.1,7.1,0,0,1-2.313.83,4.934,4.934,0,0,0-8.249,3.221,17.174,17.174,0,0,1-1.825-.462,11.066,11.066,0,0,1-4.7-3.128.511.511,0,0,0-.286-.169.494.494,0,0,0-.533.265,4.551,4.551,0,0,0,.384,4.69.494.494,0,0,0-.476.176.508.508,0,0,0-.108.3c0,.05,0,.1,0,.151a4.257,4.257,0,0,0,1.594,3.328.5.5,0,0,0-.165.188.5.5,0,0,0-.026.377,4.369,4.369,0,0,0,2.822,2.852,7.711,7.711,0,0,1-4,1.124c-.125,0-.254,0-.383-.01a.494.494,0,0,0-.51.411.507.507,0,0,0,.249.514,11.833,11.833,0,0,0,12.926-.606.5.5,0,0,0,.058-.754h0a.5.5,0,0,0-.647-.048,10.822,10.822,0,0,1-10.2,1.348,8.691,8.691,0,0,0,4.049-1.873.507.507,0,0,0,.18-.482.493.493,0,0,0-.47-.4,3.384,3.384,0,0,1-2.847-1.711,4.716,4.716,0,0,0,.819-.112.51.51,0,0,0,.4-.422.493.493,0,0,0-.371-.542,3.269,3.269,0,0,1-2.447-2.637,4.5,4.5,0,0,0,1.161.116.493.493,0,0,0,.475-.437.508.508,0,0,0-.248-.486,3.558,3.558,0,0,1-1.593-3.929,12.047,12.047,0,0,0,4.578,2.836,13.247,13.247,0,0,0,2.356.536l.243.01a.493.493,0,0,0,.514-.512c0-.029,0-.057,0-.086a3.948,3.948,0,0,1,6.763-2.769.487.487,0,0,0,.414.143,8.117,8.117,0,0,0,1.466-.343,3.527,3.527,0,0,1-.884.7.5.5,0,0,0-.214.635l.007.016a.493.493,0,0,0,.5.288,8.706,8.706,0,0,0,1.2-.2,7.959,7.959,0,0,1-1.149.979.49.49,0,0,0-.208.419v.031c0,.034,0,.067,0,.1v.045a10.792,10.792,0,0,1-2.784,7.194.5.5,0,0,0,.744.66,11.74,11.74,0,0,0,3.026-7.8A8.883,8.883,0,0,0,125.463,132,.493.493,0,0,0,125.368,131.362Z" transform="translate(-105.176 -129.347)" fill="#5a5a5a"/></g></g></svg>